# MagicaVoxel @ Ephtracy

# group
o 

# material
mtllib ANON.mtl
usemtl palette

# normals
vn -1 0 0
vn 1 0 0
vn 0 0 1
vn 0 0 -1
vn 0 -1 0
vn 0 1 0

# texcoords
vt 0.0292969 0.5
vt 0.0761719 0.5
vt 0.0996094 0.5
vt 0.177734 0.5
vt 0.181641 0.5
vt 0.634766 0.5
vt 0.662109 0.5
vt 0.666016 0.5
vt 0.958984 0.5
vt 0.962891 0.5
vt 0.966797 0.5
vt 0.970703 0.5
vt 0.974609 0.5
vt 0.994141 0.5

# verts
v -1.2 1.1 -2.98023e-08
v -1.2 1.1 -0.2
v -1.2 1.6 -2.98023e-08
v -1.2 1.6 -0.1
v -1.2 1.7 -0.1
v -1.2 1.7 -0.2
v -1.1 1 0.2
v -1.1 1 -0.1
v -1.1 1.1 -2.98023e-08
v -1.1 1.1 -0.1
v -1.1 1.2 0.2
v -1.1 1.2 -2.98023e-08
v -1.1 1.5 0.2
v -1.1 1.5 0.1
v -1.1 1.5 -2.98023e-08
v -1.1 1.6 -2.98023e-08
v -1.1 1.6 -0.1
v -1.1 1.7 -0.1
v -1.1 1.7 -0.2
v -1.1 1.8 0.2
v -1.1 1.8 0.1
v -1.1 2.1 -0.1
v -1.1 2.1 -0.2
v -1.1 2.3 -2.98023e-08
v -1.1 2.3 -0.1
v -1.1 2.4 0.2
v -1.1 2.4 0.1
v -1.1 2.5 0.1
v -1.1 2.5 -2.98023e-08
v -1 1.5 0.2
v -1 1.5 0.1
v -1 1.8 0.2
v -1 1.8 0.1
v -1 2.2 -0.1
v -1 2.2 -0.2
v -1 2.3 -2.98023e-08
v -1 2.3 -0.1
v -1 2.4 0.2
v -1 2.4 0.1
v -1 2.5 0.1
v -1 2.5 -2.98023e-08
v -1 2.6 -0.1
v -1 2.6 -0.2
v -1 3.3 0.2
v -1 3.3 0.1
v -1 3.4 0.1
v -1 3.4 -0.1
v -0.9 1.9 0.2
v -0.9 1.9 -2.98023e-08
v -0.9 2 0.2
v -0.9 2 -2.98023e-08
v -0.9 2 -0.2
v -0.9 2.1 -2.98023e-08
v -0.9 2.1 -0.2
v -0.9 2.6 0.3
v -0.9 2.6 0.2
v -0.9 2.6 -0.1
v -0.9 2.6 -0.2
v -0.9 3.3 0.2
v -0.9 3.3 0.1
v -0.9 3.4 0.1
v -0.9 3.4 -0.1
v -0.9 3.6 0.3
v -0.9 3.6 0.2
v -0.9 3.6 -0.1
v -0.9 3.6 -0.2
v -0.9 3.7 0.2
v -0.9 3.7 -0.1
v -0.8 2 0.2
v -0.8 2 -2.98023e-08
v -0.8 2.1 -2.98023e-08
v -0.8 2.1 -0.2
v -0.8 2.3 0.2
v -0.8 2.3 0.1
v -0.8 2.3 -2.98023e-08
v -0.8 2.4 0.2
v -0.8 2.4 0.1
v -0.8 2.4 -2.98023e-08
v -0.8 2.4 -0.2
v -0.8 2.5 0.3
v -0.8 2.5 0.2
v -0.8 2.6 0.3
v -0.8 2.6 0.2
v -0.8 3.6 0.3
v -0.8 3.6 0.2
v -0.8 3.6 -0.1
v -0.8 3.6 -0.2
v -0.8 3.7 0.3
v -0.8 3.7 0.2
v -0.8 3.7 -0.1
v -0.8 3.7 -0.2
v -0.8 3.8 0.2
v -0.8 3.8 -0.1
v -0.7 0.5 0.2
v -0.7 0.5 -0.1
v -0.7 1 0.2
v -0.7 1 -0.1
v -0.7 3.7 0.3
v -0.7 3.7 0.2
v -0.7 3.7 -0.1
v -0.7 3.7 -0.2
v -0.7 3.8 0.3
v -0.7 3.8 0.2
v -0.7 3.8 -0.1
v -0.7 3.8 -0.2
v -0.7 3.9 0.2
v -0.7 3.9 -0.1
v -0.6 1 0.2
v -0.6 1 -0.1
v -0.6 1.1 0.2
v -0.6 1.1 -0.1
v -0.6 1.3 -0.1
v -0.6 1.3 -0.2
v -0.6 1.5 -0.1
v -0.6 1.5 -0.2
v -0.6 2.4 0.3
v -0.6 2.4 0.2
v -0.6 2.5 0.3
v -0.6 2.5 0.2
v -0.6 3.8 0.3
v -0.6 3.8 0.2
v -0.6 3.8 -0.1
v -0.6 3.8 -0.2
v -0.6 3.9 0.3
v -0.6 3.9 0.2
v -0.6 3.9 0.1
v -0.6 3.9 -2.98023e-08
v -0.6 3.9 -0.1
v -0.6 3.9 -0.2
v -0.6 4 0.1
v -0.6 4 -2.98023e-08
v -0.5 0 0.3
v -0.5 0 -0.1
v -0.5 0.2 0.3
v -0.5 0.2 0.2
v -0.5 0.2 -0.1
v -0.5 0.5 0.2
v -0.5 0.5 -0.1
v -0.5 1.1 0.2
v -0.5 1.1 -0.1
v -0.5 1.1 -0.2
v -0.5 1.2 0.2
v -0.5 1.2 -0.1
v -0.5 1.3 -0.1
v -0.5 1.3 -0.2
v -0.5 3.9 0.2
v -0.5 3.9 0.1
v -0.5 3.9 -2.98023e-08
v -0.5 3.9 -0.1
v -0.5 4 0.2
v -0.5 4 0.1
v -0.5 4 -2.98023e-08
v -0.5 4 -0.1
v -0.4 1.2 0.2
v -0.4 1.2 -0.1
v -0.4 1.4 0.2
v -0.4 1.4 -0.1
v -0.4 1.5 -0.1
v -0.4 1.5 -0.2
v -0.4 1.6 -0.1
v -0.4 1.6 -0.2
v -0.4 1.9 -0.1
v -0.4 1.9 -0.2
v -0.4 2.4 -0.1
v -0.4 2.4 -0.2
v -0.3 1.6 -0.1
v -0.3 1.6 -0.2
v -0.3 1.8 -0.1
v -0.3 1.9 -0.1
v -0.3 1.9 -0.2
v -0.2 3.4 0.3
v -0.2 3.4 0.2
v -0.2 3.5 0.3
v -0.2 3.5 0.2
v -0.0999999 3.3 0.3
v -0.0999999 3.3 0.2
v -0.0999999 3.4 0.3
v -0.0999999 3.4 0.2
v 1.19209e-07 3.2 0.3
v 1.19209e-07 3.2 0.2
v 1.19209e-07 3.3 0.3
v 1.19209e-07 3.3 0.2
v 0.1 0 0.3
v 0.1 0 -0.1
v 0.1 0.2 0.3
v 0.1 0.2 0.2
v 0.1 0.2 -0.1
v 0.1 0.5 0.2
v 0.1 0.5 0.1
v 0.1 0.5 -2.98023e-08
v 0.1 0.5 -0.1
v 0.2 1.1 -0.1
v 0.2 1.1 -0.2
v 0.2 1.2 -0.1
v 0.2 1.4 -0.1
v 0.2 1.4 -0.2
v 0.2 2.1 -0.1
v 0.2 2.1 -0.2
v 0.2 2.6 -0.1
v 0.2 2.6 -0.2
v 0.3 1.4 -0.1
v 0.3 1.4 -0.2
v 0.3 1.5 -0.1
v 0.3 1.5 -0.2
v 0.3 1.9 -0.1
v 0.3 1.9 -0.2
v 0.3 2.1 -0.1
v 0.3 2.1 -0.2
v 0.4 1.5 -0.1
v 0.4 1.5 -0.2
v 0.4 1.8 -0.1
v 0.4 1.9 -0.1
v 0.4 1.9 -0.2
v 0.4 2.4 0.3
v 0.4 2.4 0.2
v 0.4 2.5 0.3
v 0.4 2.5 0.2
v 0.5 2.3 0.3
v 0.5 2.3 0.2
v 0.5 2.4 0.3
v 0.5 2.4 0.2
v 0.5 2.5 0.3
v 0.5 2.5 0.2
v 0.5 2.6 0.3
v 0.5 2.6 0.2
v 0.5 3.4 0.3
v 0.5 3.4 0.2
v 0.5 3.5 0.3
v 0.5 3.5 0.2
v 0.6 1.3 0.2
v 0.6 1.3 -0.1
v 0.6 1.4 0.2
v 0.6 1.4 -0.1
v 0.6 2.6 0.3
v 0.6 2.6 0.2
v 0.6 2.7 0.3
v 0.6 2.7 0.2
v 0.6 3.3 0.3
v 0.6 3.3 0.2
v 0.6 3.4 0.3
v 0.6 3.4 0.2
v 0.7 1.1 0.2
v 0.7 1.1 -0.1
v 0.7 1.2 0.2
v 0.7 1.2 -0.1
v 0.7 1.3 0.2
v 0.7 1.3 -0.1
v 0.7 2.7 0.3
v 0.7 2.7 0.2
v 0.7 3.3 0.3
v 0.7 3.3 0.2
v 0.8 1 0.2
v 0.8 1 -0.1
v 0.8 1.1 0.2
v 0.8 1.1 -0.1
v 0.8 1.7 -0.1
v 0.8 1.7 -0.2
v 0.8 2.1 -0.1
v 0.8 2.1 -0.2
v 0.9 1.4 -0.1
v 0.9 1.4 -0.2
v 0.9 1.5 -0.1
v 0.9 1.7 -0.1
v 0.9 1.7 -0.2
v 1 2.4 0.2
v 1 2.4 -0.2
v 1 2.5 0.1
v 1 2.5 -2.98023e-08
v 1 2.6 0.2
v 1 2.6 0.1
v 1 2.6 -2.98023e-08
v 1 2.6 -0.2
v 1.1 1.2 -0.1
v 1.1 1.2 -0.2
v 1.1 1.4 -0.1
v 1.1 1.4 -0.2
v 1.1 2.2 0.1
v 1.1 2.2 -0.2
v 1.1 2.3 0.2
v 1.1 2.3 0.1
v 1.1 2.4 0.2
v 1.1 2.4 -0.2
v 1.2 1.5 -0.1
v 1.2 1.5 -0.2
v 1.2 1.6 0.1
v 1.2 1.6 -0.1
v 1.2 2.1 0.1
v 1.2 2.1 -2.98023e-08
v 1.2 2.2 -2.98023e-08
v 1.2 2.2 -0.2
v -1 1.9 0.2
v -1 1.9 -2.98023e-08
v -1 2 -2.98023e-08
v -1 2 -0.2
v -1 2.1 -0.1
v -1 2.1 -0.2
v -1 2.2 0.2
v -1 2.2 0.1
v -1 2.2 -2.98023e-08
v -1 2.2 -0.1
v -0.9 1.1 -0.1
v -0.9 1.1 -0.2
v -0.9 1.3 -0.1
v -0.9 1.3 -0.2
v -0.9 2.2 0.2
v -0.9 2.2 0.1
v -0.9 2.2 -2.98023e-08
v -0.9 2.2 -0.2
v -0.9 2.3 0.1
v -0.9 2.3 -2.98023e-08
v -0.9 2.4 0.2
v -0.9 2.4 0.1
v -0.9 2.4 -2.98023e-08
v -0.9 2.4 -0.2
v -0.8 1 0.2
v -0.8 1 -0.1
v -0.8 1.1 0.2
v -0.8 1.1 -0.1
v -0.7 1.1 0.2
v -0.7 1.1 -0.1
v -0.7 1.3 0.2
v -0.7 1.3 -0.1
v -0.7 1.3 -0.2
v -0.7 1.5 -0.1
v -0.7 1.5 -0.2
v -0.7 2.7 0.3
v -0.7 2.7 0.2
v -0.7 3.2 0.3
v -0.7 3.2 0.2
v -0.6 1.3 0.2
v -0.6 1.3 -0.1
v -0.6 1.4 0.2
v -0.6 1.4 -0.1
v -0.6 2.6 0.3
v -0.6 2.6 0.2
v -0.6 2.7 0.3
v -0.6 2.7 0.2
v -0.6 3.2 0.3
v -0.6 3.2 0.2
v -0.6 3.3 0.3
v -0.6 3.3 0.2
v -0.5 1.5 -0.1
v -0.5 1.5 -0.2
v -0.5 1.8 -0.1
v -0.5 2.4 -0.1
v -0.5 2.4 -0.2
v -0.5 2.5 0.3
v -0.5 2.5 0.2
v -0.5 2.6 0.3
v -0.5 2.6 0.2
v -0.5 3.3 0.3
v -0.5 3.3 0.2
v -0.5 3.4 0.3
v -0.5 3.4 0.2
v -0.4 2.4 0.3
v -0.4 2.4 0.2
v -0.4 2.5 0.3
v -0.4 2.5 0.2
v -0.4 3.4 0.3
v -0.4 3.4 0.2
v -0.4 3.5 0.3
v -0.4 3.5 0.2
v -0.2 1.2 -0.1
v -0.2 1.2 -0.2
v -0.2 1.4 -0.1
v -0.2 1.4 -0.2
v -0.0999999 0 0.3
v -0.0999999 0 -0.1
v -0.0999999 0.2 0.3
v -0.0999999 0.2 0.2
v -0.0999999 0.2 -0.1
v -0.0999999 0.5 0.2
v -0.0999999 0.5 0.1
v -0.0999999 0.5 -2.98023e-08
v -0.0999999 0.5 -0.1
v -0.0999999 1.1 -0.1
v -0.0999999 1.1 -0.2
v -0.0999999 1.2 -0.1
v -0.0999999 1.2 -0.2
v -0.0999999 1.4 -0.1
v -0.0999999 1.4 -0.2
v -0.0999999 1.5 -0.1
v -0.0999999 1.5 -0.2
v 0.1 1.5 -0.1
v 0.1 1.5 -0.2
v 0.1 1.8 -0.1
v 0.1 2.6 -0.1
v 0.1 2.6 -0.2
v 0.2 3.2 0.3
v 0.2 3.2 0.2
v 0.2 3.4 0.3
v 0.2 3.4 0.2
v 0.3 3.4 0.3
v 0.3 3.4 0.2
v 0.3 3.5 0.3
v 0.3 3.5 0.2
v 0.4 1.1 -0.1
v 0.4 1.1 -0.2
v 0.4 1.2 0.2
v 0.4 1.2 -0.1
v 0.4 1.2 -0.2
v 0.4 1.4 0.2
v 0.4 1.4 -0.1
v 0.5 0 0.3
v 0.5 0 -0.1
v 0.5 0.2 0.3
v 0.5 0.2 0.2
v 0.5 0.2 -0.1
v 0.5 0.5 0.2
v 0.5 0.5 -0.1
v 0.5 1.1 0.2
v 0.5 1.1 -0.1
v 0.5 1.2 0.2
v 0.5 1.2 -0.1
v 0.5 1.2 -0.2
v 0.5 1.3 -0.1
v 0.5 1.3 -0.2
v 0.6 1 0.2
v 0.6 1 -0.1
v 0.6 1.1 0.2
v 0.6 1.1 -0.1
v 0.6 1.3 -0.1
v 0.6 1.3 -0.2
v 0.6 1.4 -0.1
v 0.6 1.4 -0.2
v 0.6 3.9 0.2
v 0.6 3.9 0.1
v 0.6 3.9 -2.98023e-08
v 0.6 3.9 -0.1
v 0.6 4 0.2
v 0.6 4 0.1
v 0.6 4 -2.98023e-08
v 0.6 4 -0.1
v 0.7 0.5 0.2
v 0.7 0.5 -0.1
v 0.7 1 0.2
v 0.7 1 -0.1
v 0.7 1.4 -0.1
v 0.7 1.4 -0.2
v 0.7 1.5 -0.1
v 0.7 2.1 -0.1
v 0.7 2.1 -0.2
v 0.7 3.8 0.3
v 0.7 3.8 0.2
v 0.7 3.8 -0.1
v 0.7 3.8 -0.2
v 0.7 3.9 0.3
v 0.7 3.9 0.2
v 0.7 3.9 0.1
v 0.7 3.9 -2.98023e-08
v 0.7 3.9 -0.1
v 0.7 3.9 -0.2
v 0.7 4 0.1
v 0.7 4 -2.98023e-08
v 0.8 2 0.2
v 0.8 2 -2.98023e-08
v 0.8 2.3 0.3
v 0.8 2.3 0.2
v 0.8 2.3 -2.98023e-08
v 0.8 2.4 0.3
v 0.8 2.4 -2.98023e-08
v 0.8 3.7 0.3
v 0.8 3.7 0.2
v 0.8 3.7 -0.1
v 0.8 3.7 -0.2
v 0.8 3.8 0.3
v 0.8 3.8 0.2
v 0.8 3.8 -0.1
v 0.8 3.8 -0.2
v 0.8 3.9 0.2
v 0.8 3.9 -0.1
v 0.9 1.9 0.2
v 0.9 1.9 -2.98023e-08
v 0.9 2 0.2
v 0.9 2 -2.98023e-08
v 0.9 2.1 -2.98023e-08
v 0.9 2.1 -0.2
v 0.9 2.4 0.3
v 0.9 2.4 -2.98023e-08
v 0.9 2.6 0.3
v 0.9 2.6 -0.2
v 0.9 3.6 0.3
v 0.9 3.6 0.2
v 0.9 3.6 -0.1
v 0.9 3.6 -0.2
v 0.9 3.7 0.3
v 0.9 3.7 0.2
v 0.9 3.7 -0.1
v 0.9 3.7 -0.2
v 0.9 3.8 0.2
v 0.9 3.8 -0.1
v 1 1.4 0.2
v 1 1.4 0.1
v 1 1.6 0.2
v 1 1.6 0.1
v 1 1.8 0.1
v 1 1.8 -2.98023e-08
v 1 1.9 0.2
v 1 1.9 -2.98023e-08
v 1 2 -2.98023e-08
v 1 2 -0.2
v 1 2.1 -2.98023e-08
v 1 2.1 -0.2
v 1 2.6 0.3
v 1 2.6 0.2
v 1 2.9 -0.1
v 1 2.9 -0.2
v 1 3.3 0.2
v 1 3.3 0.1
v 1 3.4 0.1
v 1 3.4 -0.1
v 1 3.6 0.3
v 1 3.6 0.2
v 1 3.6 -0.1
v 1 3.6 -0.2
v 1 3.7 0.2
v 1 3.7 -0.1
v 1.1 1 0.2
v 1.1 1 -0.1
v 1.1 1.2 0.2
v 1.1 1.2 0.1
v 1.1 1.2 -0.1
v 1.1 1.3 0.1
v 1.1 1.4 0.2
v 1.1 1.4 0.1
v 1.1 1.5 -0.1
v 1.1 1.5 -0.2
v 1.1 1.6 0.1
v 1.1 1.6 -0.1
v 1.1 1.8 0.1
v 1.1 1.8 -2.98023e-08
v 1.1 2 -2.98023e-08
v 1.1 2 -0.2
v 1.1 2.6 0.2
v 1.1 2.6 0.1
v 1.1 2.6 -0.1
v 1.1 2.6 -0.2
v 1.1 2.7 0.1
v 1.1 2.7 -0.1
v 1.1 2.9 -0.1
v 1.1 2.9 -0.2
v 1.1 3.3 0.2
v 1.1 3.3 0.1
v 1.1 3.4 0.1
v 1.1 3.4 -0.1
v 1.2 1.2 0.1
v 1.2 1.2 -0.2
v 1.2 1.3 0.1
v 1.2 1.3 -0.2
v 1.2 2.2 0.1
v 1.2 2.2 -2.98023e-08
v 1.2 2.3 0.2
v 1.2 2.3 0.1
v 1.2 2.4 -2.98023e-08
v 1.2 2.4 -0.2
v 1.2 2.6 0.2
v 1.2 2.6 0.1
v 1.2 2.6 -0.1
v 1.2 2.6 -0.2
v 1.2 2.7 0.1
v 1.2 2.7 -0.1
v 1.3 1.3 0.1
v 1.3 1.3 -0.2
v 1.3 2.1 0.1
v 1.3 2.1 -2.98023e-08
v 1.3 2.4 -2.98023e-08
v 1.3 2.4 -0.2
v -0.9 2.6 0.3
v -0.9 3.6 0.3
v -0.8 2.5 0.3
v -0.8 2.6 0.3
v -0.8 3.6 0.3
v -0.8 3.7 0.3
v -0.7 2.7 0.3
v -0.7 3.2 0.3
v -0.7 3.4 0.3
v -0.7 3.6 0.3
v -0.7 3.7 0.3
v -0.7 3.8 0.3
v -0.6 2.4 0.3
v -0.6 2.5 0.3
v -0.6 2.6 0.3
v -0.6 2.7 0.3
v -0.6 3.2 0.3
v -0.6 3.3 0.3
v -0.6 3.4 0.3
v -0.6 3.5 0.3
v -0.6 3.6 0.3
v -0.6 3.7 0.3
v -0.6 3.8 0.3
v -0.6 3.9 0.3
v -0.5 0 0.3
v -0.5 0.2 0.3
v -0.5 2.5 0.3
v -0.5 2.6 0.3
v -0.5 3.3 0.3
v -0.5 3.4 0.3
v -0.5 3.5 0.3
v -0.5 3.7 0.3
v -0.4 2.4 0.3
v -0.4 2.5 0.3
v -0.4 3.4 0.3
v -0.4 3.5 0.3
v -0.4 3.7 0.3
v -0.4 3.8 0.3
v -0.3 3.6 0.3
v -0.3 3.7 0.3
v -0.2 3.4 0.3
v -0.2 3.5 0.3
v -0.2 3.6 0.3
v -0.2 3.8 0.3
v -0.0999999 0 0.3
v -0.0999999 0.2 0.3
v -0.0999999 3.3 0.3
v -0.0999999 3.4 0.3
v -0.0999999 3.7 0.3
v -0.0999999 3.8 0.3
v 1.19209e-07 3.2 0.3
v 1.19209e-07 3.3 0.3
v 1.19209e-07 3.5 0.3
v 1.19209e-07 3.7 0.3
v 0.1 0 0.3
v 0.1 0.2 0.3
v 0.1 3.5 0.3
v 0.1 3.6 0.3
v 0.2 3.2 0.3
v 0.2 3.4 0.3
v 0.2 3.6 0.3
v 0.2 3.8 0.3
v 0.3 3.4 0.3
v 0.3 3.5 0.3
v 0.3 3.7 0.3
v 0.3 3.8 0.3
v 0.4 2.4 0.3
v 0.4 2.5 0.3
v 0.4 3.6 0.3
v 0.4 3.7 0.3
v 0.5 0 0.3
v 0.5 0.2 0.3
v 0.5 2.3 0.3
v 0.5 2.4 0.3
v 0.5 2.5 0.3
v 0.5 2.6 0.3
v 0.5 3.4 0.3
v 0.5 3.5 0.3
v 0.6 2.6 0.3
v 0.6 2.7 0.3
v 0.6 3.3 0.3
v 0.6 3.4 0.3
v 0.6 3.7 0.3
v 0.6 3.8 0.3
v 0.7 2.7 0.3
v 0.7 3.3 0.3
v 0.7 3.4 0.3
v 0.7 3.6 0.3
v 0.7 3.7 0.3
v 0.7 3.8 0.3
v 0.7 3.9 0.3
v 0.8 2.3 0.3
v 0.8 2.4 0.3
v 0.8 3.4 0.3
v 0.8 3.6 0.3
v 0.8 3.7 0.3
v 0.8 3.8 0.3
v 0.9 2.4 0.3
v 0.9 2.6 0.3
v 0.9 3.6 0.3
v 0.9 3.7 0.3
v 1 2.6 0.3
v 1 3.6 0.3
v -1.1 1 0.2
v -1.1 1.2 0.2
v -1.1 1.5 0.2
v -1.1 1.8 0.2
v -1.1 2.4 0.2
v -1 1.1 0.2
v -1 1.2 0.2
v -1 1.3 0.2
v -1 1.5 0.2
v -1 1.8 0.2
v -1 1.9 0.2
v -1 2.2 0.2
v -1 2.4 0.2
v -1 3.3 0.2
v -0.9 1.2 0.2
v -0.9 1.3 0.2
v -0.9 1.5 0.2
v -0.9 1.9 0.2
v -0.9 2 0.2
v -0.9 2.2 0.2
v -0.9 2.4 0.2
v -0.9 2.6 0.2
v -0.9 3.3 0.2
v -0.9 3.6 0.2
v -0.9 3.7 0.2
v -0.8 1 0.2
v -0.8 1.1 0.2
v -0.8 1.2 0.2
v -0.8 1.4 0.2
v -0.8 2 0.2
v -0.8 2.3 0.2
v -0.8 2.4 0.2
v -0.8 2.5 0.2
v -0.8 2.6 0.2
v -0.8 3.6 0.2
v -0.8 3.7 0.2
v -0.8 3.8 0.2
v -0.7 0.5 0.2
v -0.7 1 0.2
v -0.7 1.1 0.2
v -0.7 1.3 0.2
v -0.7 1.4 0.2
v -0.7 1.6 0.2
v -0.7 1.7 0.2
v -0.7 1.9 0.2
v -0.7 2.7 0.2
v -0.7 3.2 0.2
v -0.7 3.7 0.2
v -0.7 3.8 0.2
v -0.7 3.9 0.2
v -0.6 0.6 0.2
v -0.6 0.9 0.2
v -0.6 1 0.2
v -0.6 1.1 0.2
v -0.6 1.3 0.2
v -0.6 1.4 0.2
v -0.6 1.6 0.2
v -0.6 1.7 0.2
v -0.6 2 0.2
v -0.6 2.2 0.2
v -0.6 2.3 0.2
v -0.6 2.4 0.2
v -0.6 2.5 0.2
v -0.6 2.6 0.2
v -0.6 2.7 0.2
v -0.6 2.9 0.2
v -0.6 3.1 0.2
v -0.6 3.2 0.2
v -0.6 3.3 0.2
v -0.6 3.8 0.2
v -0.6 3.9 0.2
v -0.5 0.2 0.2
v -0.5 0.5 0.2
v -0.5 0.9 0.2
v -0.5 1 0.2
v -0.5 1.1 0.2
v -0.5 1.2 0.2
v -0.5 1.6 0.2
v -0.5 1.7 0.2
v -0.5 1.8 0.2
v -0.5 1.9 0.2
v -0.5 2 0.2
v -0.5 2.2 0.2
v -0.5 2.3 0.2
v -0.5 2.4 0.2
v -0.5 2.5 0.2
v -0.5 2.6 0.2
v -0.5 2.8 0.2
v -0.5 2.9 0.2
v -0.5 3.1 0.2
v -0.5 3.2 0.2
v -0.5 3.3 0.2
v -0.5 3.4 0.2
v -0.5 3.9 0.2
v -0.5 4 0.2
v -0.4 0.6 0.2
v -0.4 0.8 0.2
v -0.4 1 0.2
v -0.4 1.1 0.2
v -0.4 1.2 0.2
v -0.4 1.4 0.2
v -0.4 1.5 0.2
v -0.4 1.6 0.2
v -0.4 1.7 0.2
v -0.4 1.8 0.2
v -0.4 1.9 0.2
v -0.4 2.3 0.2
v -0.4 2.4 0.2
v -0.4 2.5 0.2
v -0.4 2.8 0.2
v -0.4 3 0.2
v -0.4 3.4 0.2
v -0.4 3.5 0.2
v -0.3 0.8 0.2
v -0.3 1 0.2
v -0.3 1.7 0.2
v -0.3 1.8 0.2
v -0.3 2.1 0.2
v -0.3 2.3 0.2
v -0.3 2.4 0.2
v -0.3 2.5 0.2
v -0.3 3 0.2
v -0.3 3.1 0.2
v -0.2 0.6 0.2
v -0.2 0.9 0.2
v -0.2 1 0.2
v -0.2 1.1 0.2
v -0.2 1.5 0.2
v -0.2 1.7 0.2
v -0.2 1.9 0.2
v -0.2 2.1 0.2
v -0.2 2.2 0.2
v -0.2 2.3 0.2
v -0.2 2.5 0.2
v -0.2 2.8 0.2
v -0.2 3 0.2
v -0.2 3.1 0.2
v -0.2 3.2 0.2
v -0.2 3.4 0.2
v -0.2 3.5 0.2
v -0.0999999 0.2 0.2
v -0.0999999 0.5 0.2
v -0.0999999 1.5 0.2
v -0.0999999 1.6 0.2
v -0.0999999 1.7 0.2
v -0.0999999 1.8 0.2
v -0.0999999 1.9 0.2
v -0.0999999 2 0.2
v -0.0999999 2.1 0.2
v -0.0999999 2.2 0.2
v -0.0999999 2.3 0.2
v -0.0999999 2.6 0.2
v -0.0999999 2.7 0.2
v -0.0999999 3.3 0.2
v -0.0999999 3.4 0.2
v 1.19209e-07 0.9 0.2
v 1.19209e-07 1 0.2
v 1.19209e-07 1.6 0.2
v 1.19209e-07 1.7 0.2
v 1.19209e-07 1.9 0.2
v 1.19209e-07 2 0.2
v 1.19209e-07 3.2 0.2
v 1.19209e-07 3.3 0.2
v 0.1 0.2 0.2
v 0.1 0.5 0.2
v 0.1 1.5 0.2
v 0.1 1.7 0.2
v 0.1 1.8 0.2
v 0.1 2.1 0.2
v 0.1 2.2 0.2
v 0.1 2.3 0.2
v 0.1 2.6 0.2
v 0.1 2.7 0.2
v 0.2 0.6 0.2
v 0.2 0.7 0.2
v 0.2 1 0.2
v 0.2 1.1 0.2
v 0.2 1.5 0.2
v 0.2 1.7 0.2
v 0.2 1.9 0.2
v 0.2 2.1 0.2
v 0.2 2.2 0.2
v 0.2 2.3 0.2
v 0.2 2.5 0.2
v 0.2 2.8 0.2
v 0.2 3 0.2
v 0.2 3.1 0.2
v 0.2 3.2 0.2
v 0.2 3.4 0.2
v 0.3 0.7 0.2
v 0.3 0.8 0.2
v 0.3 1.7 0.2
v 0.3 1.8 0.2
v 0.3 2.1 0.2
v 0.3 2.3 0.2
v 0.3 2.4 0.2
v 0.3 2.5 0.2
v 0.3 3 0.2
v 0.3 3.1 0.2
v 0.3 3.4 0.2
v 0.3 3.5 0.2
v 0.4 0.6 0.2
v 0.4 0.8 0.2
v 0.4 1.2 0.2
v 0.4 1.4 0.2
v 0.4 1.5 0.2
v 0.4 1.6 0.2
v 0.4 1.7 0.2
v 0.4 1.8 0.2
v 0.4 1.9 0.2
v 0.4 2.3 0.2
v 0.4 2.4 0.2
v 0.4 2.5 0.2
v 0.4 2.8 0.2
v 0.4 3 0.2
v 0.4 3.1 0.2
v 0.5 0.2 0.2
v 0.5 0.5 0.2
v 0.5 1 0.2
v 0.5 1.1 0.2
v 0.5 1.2 0.2
v 0.5 1.6 0.2
v 0.5 1.7 0.2
v 0.5 1.8 0.2
v 0.5 1.9 0.2
v 0.5 2 0.2
v 0.5 2.2 0.2
v 0.5 2.3 0.2
v 0.5 2.4 0.2
v 0.5 2.5 0.2
v 0.5 2.6 0.2
v 0.5 2.8 0.2
v 0.5 2.9 0.2
v 0.5 3.1 0.2
v 0.5 3.2 0.2
v 0.5 3.4 0.2
v 0.5 3.5 0.2
v 0.6 0.6 0.2
v 0.6 1 0.2
v 0.6 1.1 0.2
v 0.6 1.3 0.2
v 0.6 1.4 0.2
v 0.6 1.6 0.2
v 0.6 1.7 0.2
v 0.6 2 0.2
v 0.6 2.2 0.2
v 0.6 2.3 0.2
v 0.6 2.6 0.2
v 0.6 2.7 0.2
v 0.6 2.9 0.2
v 0.6 3.1 0.2
v 0.6 3.3 0.2
v 0.6 3.4 0.2
v 0.6 3.9 0.2
v 0.6 4 0.2
v 0.7 0.5 0.2
v 0.7 1 0.2
v 0.7 1.1 0.2
v 0.7 1.2 0.2
v 0.7 1.3 0.2
v 0.7 1.4 0.2
v 0.7 1.5 0.2
v 0.7 1.6 0.2
v 0.7 1.7 0.2
v 0.7 1.9 0.2
v 0.7 2.7 0.2
v 0.7 3.3 0.2
v 0.7 3.8 0.2
v 0.7 3.9 0.2
v 0.8 1 0.2
v 0.8 1.1 0.2
v 0.8 1.2 0.2
v 0.8 1.3 0.2
v 0.8 1.4 0.2
v 0.8 1.5 0.2
v 0.8 1.8 0.2
v 0.8 1.9 0.2
v 0.8 2 0.2
v 0.8 2.3 0.2
v 0.8 3.7 0.2
v 0.8 3.8 0.2
v 0.8 3.9 0.2
v 0.9 1.2 0.2
v 0.9 1.3 0.2
v 0.9 1.4 0.2
v 0.9 1.5 0.2
v 0.9 1.6 0.2
v 0.9 1.8 0.2
v 0.9 1.9 0.2
v 0.9 2 0.2
v 0.9 3.6 0.2
v 0.9 3.7 0.2
v 0.9 3.8 0.2
v 1 1.1 0.2
v 1 1.2 0.2
v 1 1.3 0.2
v 1 1.4 0.2
v 1 1.6 0.2
v 1 1.9 0.2
v 1 2.4 0.2
v 1 2.6 0.2
v 1 3.3 0.2
v 1 3.6 0.2
v 1 3.7 0.2
v 1.1 1 0.2
v 1.1 1.2 0.2
v 1.1 1.4 0.2
v 1.1 2.3 0.2
v 1.1 2.4 0.2
v 1.1 2.6 0.2
v 1.1 3.3 0.2
v 1.2 2.3 0.2
v 1.2 2.6 0.2
v -1.1 1.5 0.1
v -1.1 1.8 0.1
v -1.1 2.4 0.1
v -1.1 2.5 0.1
v -1 1.5 0.1
v -1 1.8 0.1
v -1 2.4 0.1
v -1 2.5 0.1
v -1 3.3 0.1
v -1 3.4 0.1
v -0.9 3.3 0.1
v -0.9 3.4 0.1
v -0.6 3.9 0.1
v -0.6 4 0.1
v -0.5 3.9 0.1
v -0.5 4 0.1
v 0.6 3.9 0.1
v 0.6 4 0.1
v 0.7 3.9 0.1
v 0.7 4 0.1
v 1 1.4 0.1
v 1 1.6 0.1
v 1 1.8 0.1
v 1 3.3 0.1
v 1 3.4 0.1
v 1.1 1.2 0.1
v 1.1 1.3 0.1
v 1.1 1.4 0.1
v 1.1 1.6 0.1
v 1.1 1.8 0.1
v 1.1 2.2 0.1
v 1.1 2.3 0.1
v 1.1 2.6 0.1
v 1.1 2.7 0.1
v 1.1 3.3 0.1
v 1.1 3.4 0.1
v 1.2 1.2 0.1
v 1.2 1.3 0.1
v 1.2 1.6 0.1
v 1.2 2.1 0.1
v 1.2 2.2 0.1
v 1.2 2.3 0.1
v 1.2 2.6 0.1
v 1.2 2.7 0.1
v 1.3 1.3 0.1
v 1.3 2.1 0.1
v -1.2 1.1 -2.98023e-08
v -1.2 1.6 -2.98023e-08
v -1.1 1.1 -2.98023e-08
v -1.1 1.2 -2.98023e-08
v -1.1 1.5 -2.98023e-08
v -1.1 1.6 -2.98023e-08
v -1 1.9 -2.98023e-08
v -1 2 -2.98023e-08
v -0.9 1.9 -2.98023e-08
v -0.9 2 -2.98023e-08
v -0.9 2.1 -2.98023e-08
v -0.8 2 -2.98023e-08
v -0.8 2.1 -2.98023e-08
v 0.8 2 -2.98023e-08
v 0.8 2.3 -2.98023e-08
v 0.8 2.4 -2.98023e-08
v 0.9 1.9 -2.98023e-08
v 0.9 2 -2.98023e-08
v 0.9 2.1 -2.98023e-08
v 0.9 2.4 -2.98023e-08
v 1 1.8 -2.98023e-08
v 1 1.9 -2.98023e-08
v 1 2 -2.98023e-08
v 1 2.1 -2.98023e-08
v 1.1 1.8 -2.98023e-08
v 1.1 2 -2.98023e-08
v 1.2 2.1 -2.98023e-08
v 1.2 2.2 -2.98023e-08
v 1.2 2.4 -2.98023e-08
v 1.3 2.1 -2.98023e-08
v 1.3 2.4 -2.98023e-08
v -1.2 1.6 -0.1
v -1.2 1.7 -0.1
v -1.1 1.6 -0.1
v -1.1 1.7 -0.1
v -0.6 1.3 -0.1
v -0.6 1.4 -0.1
v -0.5 1.2 -0.1
v -0.5 1.3 -0.1
v -0.4 1.2 -0.1
v -0.4 1.4 -0.1
v 0.4 1.2 -0.1
v 0.4 1.4 -0.1
v 0.5 1.2 -0.1
v 0.5 1.3 -0.1
v 0.6 1.3 -0.1
v 0.6 1.4 -0.1
v -1.1 2.3 -2.98023e-08
v -1.1 2.5 -2.98023e-08
v -1 2.3 -2.98023e-08
v -1 2.5 -2.98023e-08
v -0.6 3.9 -2.98023e-08
v -0.6 4 -2.98023e-08
v -0.5 3.9 -2.98023e-08
v -0.5 4 -2.98023e-08
v 0.6 3.9 -2.98023e-08
v 0.6 4 -2.98023e-08
v 0.7 3.9 -2.98023e-08
v 0.7 4 -2.98023e-08
v -1.1 1 -0.1
v -1.1 1.1 -0.1
v -1.1 2.1 -0.1
v -1.1 2.3 -0.1
v -1 2.1 -0.1
v -1 2.2 -0.1
v -1 2.3 -0.1
v -1 2.6 -0.1
v -1 3.4 -0.1
v -0.9 1.1 -0.1
v -0.9 1.3 -0.1
v -0.9 2.6 -0.1
v -0.9 3.4 -0.1
v -0.9 3.6 -0.1
v -0.9 3.7 -0.1
v -0.8 1 -0.1
v -0.8 1.1 -0.1
v -0.8 3.6 -0.1
v -0.8 3.7 -0.1
v -0.8 3.8 -0.1
v -0.7 0.5 -0.1
v -0.7 1 -0.1
v -0.7 1.1 -0.1
v -0.7 1.3 -0.1
v -0.7 1.5 -0.1
v -0.7 3.7 -0.1
v -0.7 3.8 -0.1
v -0.7 3.9 -0.1
v -0.6 1 -0.1
v -0.6 1.1 -0.1
v -0.6 1.3 -0.1
v -0.6 1.5 -0.1
v -0.6 3.8 -0.1
v -0.6 3.9 -0.1
v -0.5 0 -0.1
v -0.5 0.2 -0.1
v -0.5 0.5 -0.1
v -0.5 1.1 -0.1
v -0.5 1.5 -0.1
v -0.5 1.8 -0.1
v -0.5 2.4 -0.1
v -0.5 3.9 -0.1
v -0.5 4 -0.1
v -0.4 1.5 -0.1
v -0.4 1.6 -0.1
v -0.4 1.9 -0.1
v -0.4 2.4 -0.1
v -0.3 1.6 -0.1
v -0.3 1.8 -0.1
v -0.3 1.9 -0.1
v -0.2 1.2 -0.1
v -0.2 1.4 -0.1
v -0.0999999 0 -0.1
v -0.0999999 0.2 -0.1
v -0.0999999 0.5 -0.1
v -0.0999999 1.1 -0.1
v -0.0999999 1.2 -0.1
v -0.0999999 1.4 -0.1
v -0.0999999 1.5 -0.1
v 0.1 0 -0.1
v 0.1 0.2 -0.1
v 0.1 0.5 -0.1
v 0.1 1.5 -0.1
v 0.1 1.8 -0.1
v 0.1 2.6 -0.1
v 0.2 1.1 -0.1
v 0.2 1.2 -0.1
v 0.2 1.4 -0.1
v 0.2 2.1 -0.1
v 0.2 2.6 -0.1
v 0.3 1.4 -0.1
v 0.3 1.5 -0.1
v 0.3 1.9 -0.1
v 0.3 2.1 -0.1
v 0.4 1.1 -0.1
v 0.4 1.2 -0.1
v 0.4 1.5 -0.1
v 0.4 1.8 -0.1
v 0.4 1.9 -0.1
v 0.5 0 -0.1
v 0.5 0.2 -0.1
v 0.5 0.5 -0.1
v 0.5 1.1 -0.1
v 0.5 1.2 -0.1
v 0.6 1 -0.1
v 0.6 1.1 -0.1
v 0.6 1.3 -0.1
v 0.6 1.4 -0.1
v 0.6 3.9 -0.1
v 0.6 4 -0.1
v 0.7 0.5 -0.1
v 0.7 1 -0.1
v 0.7 1.1 -0.1
v 0.7 1.2 -0.1
v 0.7 1.3 -0.1
v 0.7 1.4 -0.1
v 0.7 1.5 -0.1
v 0.7 2.1 -0.1
v 0.7 3.8 -0.1
v 0.7 3.9 -0.1
v 0.8 1 -0.1
v 0.8 1.1 -0.1
v 0.8 1.2 -0.1
v 0.8 1.3 -0.1
v 0.8 1.4 -0.1
v 0.8 1.5 -0.1
v 0.8 1.7 -0.1
v 0.8 2.1 -0.1
v 0.8 3.7 -0.1
v 0.8 3.8 -0.1
v 0.8 3.9 -0.1
v 0.9 1.2 -0.1
v 0.9 1.3 -0.1
v 0.9 1.4 -0.1
v 0.9 1.5 -0.1
v 0.9 1.7 -0.1
v 0.9 3.6 -0.1
v 0.9 3.7 -0.1
v 0.9 3.8 -0.1
v 1 1.1 -0.1
v 1 1.2 -0.1
v 1 1.3 -0.1
v 1 1.4 -0.1
v 1 2.9 -0.1
v 1 3.4 -0.1
v 1 3.6 -0.1
v 1 3.7 -0.1
v 1.1 1 -0.1
v 1.1 1.2 -0.1
v 1.1 1.4 -0.1
v 1.1 1.5 -0.1
v 1.1 1.6 -0.1
v 1.1 2.6 -0.1
v 1.1 2.7 -0.1
v 1.1 2.9 -0.1
v 1.1 3.4 -0.1
v 1.2 1.5 -0.1
v 1.2 1.6 -0.1
v 1.2 2.6 -0.1
v 1.2 2.7 -0.1
v -1.2 1.1 -0.2
v -1.2 1.7 -0.2
v -1.1 1.7 -0.2
v -1.1 2.1 -0.2
v -1 2 -0.2
v -1 2.1 -0.2
v -1 2.2 -0.2
v -1 2.6 -0.2
v -0.9 1.1 -0.2
v -0.9 1.3 -0.2
v -0.9 2 -0.2
v -0.9 2.1 -0.2
v -0.9 2.2 -0.2
v -0.9 2.4 -0.2
v -0.9 2.6 -0.2
v -0.9 3.6 -0.2
v -0.8 2.1 -0.2
v -0.8 2.4 -0.2
v -0.8 3.6 -0.2
v -0.8 3.7 -0.2
v -0.7 1.3 -0.2
v -0.7 1.5 -0.2
v -0.7 3.7 -0.2
v -0.7 3.8 -0.2
v -0.6 1.3 -0.2
v -0.6 1.5 -0.2
v -0.6 3.8 -0.2
v -0.6 3.9 -0.2
v -0.5 1.1 -0.2
v -0.5 1.3 -0.2
v -0.5 1.5 -0.2
v -0.5 2.4 -0.2
v -0.4 1.5 -0.2
v -0.4 1.6 -0.2
v -0.4 1.9 -0.2
v -0.4 2.4 -0.2
v -0.3 1.6 -0.2
v -0.3 1.9 -0.2
v -0.2 1.2 -0.2
v -0.2 1.4 -0.2
v -0.0999999 1.1 -0.2
v -0.0999999 1.2 -0.2
v -0.0999999 1.4 -0.2
v -0.0999999 1.5 -0.2
v 0.1 1.5 -0.2
v 0.1 2.6 -0.2
v 0.2 1.1 -0.2
v 0.2 1.4 -0.2
v 0.2 2.1 -0.2
v 0.2 2.6 -0.2
v 0.3 1.4 -0.2
v 0.3 1.5 -0.2
v 0.3 1.9 -0.2
v 0.3 2.1 -0.2
v 0.4 1.1 -0.2
v 0.4 1.2 -0.2
v 0.4 1.5 -0.2
v 0.4 1.9 -0.2
v 0.5 1.2 -0.2
v 0.5 1.3 -0.2
v 0.6 1.3 -0.2
v 0.6 1.4 -0.2
v 0.7 1.4 -0.2
v 0.7 2.1 -0.2
v 0.7 3.8 -0.2
v 0.7 3.9 -0.2
v 0.8 1.7 -0.2
v 0.8 2.1 -0.2
v 0.8 3.7 -0.2
v 0.8 3.8 -0.2
v 0.9 1.4 -0.2
v 0.9 1.7 -0.2
v 0.9 2.1 -0.2
v 0.9 2.6 -0.2
v 0.9 3.6 -0.2
v 0.9 3.7 -0.2
v 1 2 -0.2
v 1 2.1 -0.2
v 1 2.4 -0.2
v 1 2.6 -0.2
v 1 2.9 -0.2
v 1 3.6 -0.2
v 1.1 1.2 -0.2
v 1.1 1.4 -0.2
v 1.1 1.5 -0.2
v 1.1 2 -0.2
v 1.1 2.2 -0.2
v 1.1 2.4 -0.2
v 1.1 2.6 -0.2
v 1.1 2.9 -0.2
v 1.2 1.2 -0.2
v 1.2 1.3 -0.2
v 1.2 1.5 -0.2
v 1.2 2.2 -0.2
v 1.2 2.4 -0.2
v 1.2 2.6 -0.2
v 1.3 1.3 -0.2
v 1.3 2.4 -0.2
v -0.5 0 0.3
v -0.0999999 0 0.3
v 0.1 0 0.3
v 0.5 0 0.3
v -0.5 0 -0.1
v -0.0999999 0 -0.1
v 0.1 0 -0.1
v 0.5 0 -0.1
v -0.7 0.5 0.2
v -0.5 0.5 0.2
v -0.0999999 0.5 0.2
v 0.1 0.5 0.2
v 0.5 0.5 0.2
v 0.7 0.5 0.2
v -0.0999999 0.5 0.1
v 0.1 0.5 0.1
v -0.0999999 0.5 -2.98023e-08
v 0.1 0.5 -2.98023e-08
v -0.7 0.5 -0.1
v -0.5 0.5 -0.1
v -0.0999999 0.5 -0.1
v 0.1 0.5 -0.1
v 0.5 0.5 -0.1
v 0.7 0.5 -0.1
v -1.1 1 0.2
v -0.8 1 0.2
v 0.8 1 0.2
v 1.1 1 0.2
v -1.1 1 -0.1
v -0.8 1 -0.1
v 0.8 1 -0.1
v 1.1 1 -0.1
v -0.8 1.1 0.2
v -0.7 1.1 0.2
v 0.7 1.1 0.2
v 0.8 1.1 0.2
v -1.2 1.1 -2.98023e-08
v -1.1 1.1 -2.98023e-08
v -1.1 1.1 -0.1
v -0.9 1.1 -0.1
v -0.8 1.1 -0.1
v -0.7 1.1 -0.1
v -0.5 1.1 -0.1
v -0.0999999 1.1 -0.1
v 0.2 1.1 -0.1
v 0.4 1.1 -0.1
v 0.7 1.1 -0.1
v 0.8 1.1 -0.1
v -1.2 1.1 -0.2
v -0.9 1.1 -0.2
v -0.5 1.1 -0.2
v -0.0999999 1.1 -0.2
v 0.2 1.1 -0.2
v 0.4 1.1 -0.2
v 1.1 1.2 0.1
v 1.2 1.2 0.1
v 0.4 1.2 -0.1
v 0.5 1.2 -0.1
v 1.1 1.2 -0.1
v 0.4 1.2 -0.2
v 0.5 1.2 -0.2
v 1.1 1.2 -0.2
v 1.2 1.2 -0.2
v -0.7 1.3 0.2
v -0.6 1.3 0.2
v 0.6 1.3 0.2
v 0.7 1.3 0.2
v 1.2 1.3 0.1
v 1.3 1.3 0.1
v -0.9 1.3 -0.1
v -0.7 1.3 -0.1
v -0.6 1.3 -0.1
v -0.5 1.3 -0.1
v 0.5 1.3 -0.1
v 0.6 1.3 -0.1
v 0.7 1.3 -0.1
v -0.9 1.3 -0.2
v -0.7 1.3 -0.2
v -0.6 1.3 -0.2
v -0.5 1.3 -0.2
v 0.5 1.3 -0.2
v 0.6 1.3 -0.2
v 1.2 1.3 -0.2
v 1.3 1.3 -0.2
v -0.6 1.4 0.2
v -0.4 1.4 0.2
v 0.4 1.4 0.2
v 0.6 1.4 0.2
v -0.6 1.4 -0.1
v -0.4 1.4 -0.1
v -0.2 1.4 -0.1
v -0.0999999 1.4 -0.1
v 0.4 1.4 -0.1
v 0.6 1.4 -0.1
v 0.7 1.4 -0.1
v 0.9 1.4 -0.1
v 1 1.4 -0.1
v 1.1 1.4 -0.1
v -0.2 1.4 -0.2
v -0.0999999 1.4 -0.2
v 0.6 1.4 -0.2
v 0.7 1.4 -0.2
v 0.9 1.4 -0.2
v 1.1 1.4 -0.2
v -0.7 1.5 -0.1
v -0.6 1.5 -0.1
v -0.0999999 1.5 -0.1
v 0.1 1.5 -0.1
v -0.7 1.5 -0.2
v -0.6 1.5 -0.2
v -0.0999999 1.5 -0.2
v 0.1 1.5 -0.2
v 0.8 1.7 -0.1
v 0.9 1.7 -0.1
v 0.8 1.7 -0.2
v 0.9 1.7 -0.2
v -1.1 1.8 0.2
v -1 1.8 0.2
v -1.1 1.8 0.1
v -1 1.8 0.1
v -0.4 1.9 -0.1
v -0.3 1.9 -0.1
v 0.3 1.9 -0.1
v 0.4 1.9 -0.1
v -0.4 1.9 -0.2
v -0.3 1.9 -0.2
v 0.3 1.9 -0.2
v 0.4 1.9 -0.2
v 0.2 2.1 -0.1
v 0.3 2.1 -0.1
v 0.7 2.1 -0.1
v 0.8 2.1 -0.1
v 0.2 2.1 -0.2
v 0.3 2.1 -0.2
v 0.7 2.1 -0.2
v 0.8 2.1 -0.2
v -1 2.2 0.2
v -0.9 2.2 0.2
v -1 2.2 0.1
v -0.9 2.2 0.1
v 1.1 2.2 0.1
v 1.2 2.2 0.1
v -1 2.2 -2.98023e-08
v -0.9 2.2 -2.98023e-08
v 1.2 2.2 -2.98023e-08
v -1 2.2 -0.1
v -1 2.2 -0.2
v -0.9 2.2 -0.2
v 1.1 2.2 -0.2
v 1.2 2.2 -0.2
v 0.5 2.3 0.3
v 0.8 2.3 0.3
v 0.5 2.3 0.2
v 0.6 2.3 0.2
v 0.8 2.3 0.2
v 1.1 2.3 0.2
v 1.2 2.3 0.2
v 1.1 2.3 0.1
v 1.2 2.3 0.1
v -0.6 2.4 0.3
v -0.4 2.4 0.3
v 0.4 2.4 0.3
v 0.5 2.4 0.3
v 0.8 2.4 0.3
v 0.9 2.4 0.3
v -0.9 2.4 0.2
v -0.8 2.4 0.2
v -0.6 2.4 0.2
v -0.5 2.4 0.2
v -0.4 2.4 0.2
v 0.4 2.4 0.2
v 0.5 2.4 0.2
v 1 2.4 0.2
v 1.1 2.4 0.2
v -0.9 2.4 0.1
v -0.8 2.4 0.1
v -0.9 2.4 -2.98023e-08
v -0.8 2.4 -2.98023e-08
v 0.8 2.4 -2.98023e-08
v 0.9 2.4 -2.98023e-08
v -0.5 2.4 -0.1
v -0.4 2.4 -0.1
v -0.9 2.4 -0.2
v -0.8 2.4 -0.2
v -0.5 2.4 -0.2
v -0.4 2.4 -0.2
v 1 2.4 -0.2
v 1.1 2.4 -0.2
v -0.8 2.5 0.3
v -0.6 2.5 0.3
v -0.8 2.5 0.2
v -0.6 2.5 0.2
v -0.9 2.6 0.3
v -0.8 2.6 0.3
v 0.9 2.6 0.3
v 1 2.6 0.3
v -0.9 2.6 0.2
v -0.8 2.6 0.2
v 1 2.6 0.2
v 1 2.6 0.1
v 1 2.6 -2.98023e-08
v 0.1 2.6 -0.1
v 0.2 2.6 -0.1
v 0.1 2.6 -0.2
v 0.2 2.6 -0.2
v 0.9 2.6 -0.2
v 1 2.6 -0.2
v -0.7 3.2 0.3
v -0.6 3.2 0.3
v 1.19209e-07 3.2 0.3
v 0.2 3.2 0.3
v -0.7 3.2 0.2
v -0.6 3.2 0.2
v 1.19209e-07 3.2 0.2
v 0.2 3.2 0.2
v -0.6 3.3 0.3
v -0.5 3.3 0.3
v -0.0999999 3.3 0.3
v 1.19209e-07 3.3 0.3
v 0.6 3.3 0.3
v 0.7 3.3 0.3
v -0.6 3.3 0.2
v -0.5 3.3 0.2
v -0.0999999 3.3 0.2
v 1.19209e-07 3.3 0.2
v 0.6 3.3 0.2
v 0.7 3.3 0.2
v -0.5 3.4 0.3
v -0.4 3.4 0.3
v -0.2 3.4 0.3
v -0.0999999 3.4 0.3
v 0.2 3.4 0.3
v 0.3 3.4 0.3
v 0.5 3.4 0.3
v 0.6 3.4 0.3
v -0.5 3.4 0.2
v -0.4 3.4 0.2
v -0.2 3.4 0.2
v -0.0999999 3.4 0.2
v 0.2 3.4 0.2
v 0.3 3.4 0.2
v 0.5 3.4 0.2
v 0.6 3.4 0.2
v -0.4 3.5 0.3
v -0.2 3.5 0.3
v 0.3 3.5 0.3
v 0.5 3.5 0.3
v -0.4 3.5 0.2
v -0.2 3.5 0.2
v 0.3 3.5 0.2
v 0.5 3.5 0.2
v -0.5 0.2 0.3
v -0.0999999 0.2 0.3
v 0.1 0.2 0.3
v 0.5 0.2 0.3
v -0.5 0.2 0.2
v -0.0999999 0.2 0.2
v 0.1 0.2 0.2
v 0.5 0.2 0.2
v -0.7 1 0.2
v -0.6 1 0.2
v 0.6 1 0.2
v 0.7 1 0.2
v -0.7 1 -0.1
v -0.6 1 -0.1
v 0.6 1 -0.1
v 0.7 1 -0.1
v -0.6 1.1 0.2
v -0.5 1.1 0.2
v 0.5 1.1 0.2
v 0.6 1.1 0.2
v -0.6 1.1 -0.1
v -0.5 1.1 -0.1
v 0.5 1.1 -0.1
v 0.6 1.1 -0.1
v -0.5 1.2 0.2
v -0.4 1.2 0.2
v 0.4 1.2 0.2
v 0.5 1.2 0.2
v -0.5 1.2 -0.1
v -0.4 1.2 -0.1
v -0.2 1.2 -0.1
v -0.0999999 1.2 -0.1
v 0.4 1.2 -0.1
v 0.5 1.2 -0.1
v -0.2 1.2 -0.2
v -0.0999999 1.2 -0.2
v 1 1.4 0.2
v 1.1 1.4 0.2
v 1 1.4 0.1
v 1.1 1.4 0.1
v 0.2 1.4 -0.1
v 0.3 1.4 -0.1
v 0.2 1.4 -0.2
v 0.3 1.4 -0.2
v -1.1 1.5 0.2
v -1 1.5 0.2
v -1.1 1.5 0.1
v -1 1.5 0.1
v -0.5 1.5 -0.1
v -0.4 1.5 -0.1
v 0.3 1.5 -0.1
v 0.4 1.5 -0.1
v 1.1 1.5 -0.1
v 1.2 1.5 -0.1
v -0.5 1.5 -0.2
v -0.4 1.5 -0.2
v 0.3 1.5 -0.2
v 0.4 1.5 -0.2
v 1.1 1.5 -0.2
v 1.2 1.5 -0.2
v 1.1 1.6 0.1
v 1.2 1.6 0.1
v -1.2 1.6 -2.98023e-08
v -1.1 1.6 -2.98023e-08
v -1.2 1.6 -0.1
v -1.1 1.6 -0.1
v -0.4 1.6 -0.1
v -0.3 1.6 -0.1
v 1.1 1.6 -0.1
v 1.2 1.6 -0.1
v -0.4 1.6 -0.2
v -0.3 1.6 -0.2
v -1.2 1.7 -0.1
v -1.1 1.7 -0.1
v -1.2 1.7 -0.2
v -1.1 1.7 -0.2
v 1 1.8 0.1
v 1.1 1.8 0.1
v 1 1.8 -2.98023e-08
v 1.1 1.8 -2.98023e-08
v -1 1.9 0.2
v -0.9 1.9 0.2
v 0.9 1.9 0.2
v 1 1.9 0.2
v -1 1.9 -2.98023e-08
v -0.9 1.9 -2.98023e-08
v 0.9 1.9 -2.98023e-08
v 1 1.9 -2.98023e-08
v -0.9 2 0.2
v -0.8 2 0.2
v 0.8 2 0.2
v 0.9 2 0.2
v -1 2 -2.98023e-08
v -0.9 2 -2.98023e-08
v -0.8 2 -2.98023e-08
v 0.8 2 -2.98023e-08
v 0.9 2 -2.98023e-08
v 1 2 -2.98023e-08
v 1.1 2 -2.98023e-08
v -1 2 -0.2
v -0.9 2 -0.2
v 1 2 -0.2
v 1.1 2 -0.2
v 1.2 2.1 0.1
v 1.3 2.1 0.1
v -0.9 2.1 -2.98023e-08
v -0.8 2.1 -2.98023e-08
v 0.9 2.1 -2.98023e-08
v 1 2.1 -2.98023e-08
v 1.2 2.1 -2.98023e-08
v 1.3 2.1 -2.98023e-08
v -1.1 2.1 -0.1
v -1 2.1 -0.1
v -1.1 2.1 -0.2
v -1 2.1 -0.2
v -0.9 2.1 -0.2
v -0.8 2.1 -0.2
v 0.9 2.1 -0.2
v 1 2.1 -0.2
v -1.1 2.3 -2.98023e-08
v -1 2.3 -2.98023e-08
v -1.1 2.3 -0.1
v -1 2.3 -0.1
v -1.1 2.4 0.2
v -1 2.4 0.2
v -1.1 2.4 0.1
v -1 2.4 0.1
v 1.2 2.4 -2.98023e-08
v 1.3 2.4 -2.98023e-08
v 1.2 2.4 -0.2
v 1.3 2.4 -0.2
v -0.5 2.5 0.3
v -0.4 2.5 0.3
v 0.4 2.5 0.3
v 0.5 2.5 0.3
v -0.5 2.5 0.2
v -0.4 2.5 0.2
v 0.4 2.5 0.2
v 0.5 2.5 0.2
v -1.1 2.5 0.1
v -1 2.5 0.1
v -1.1 2.5 -2.98023e-08
v -1 2.5 -2.98023e-08
v -0.6 2.6 0.3
v -0.5 2.6 0.3
v 0.5 2.6 0.3
v 0.6 2.6 0.3
v -0.6 2.6 0.2
v -0.5 2.6 0.2
v 0.5 2.6 0.2
v 0.6 2.6 0.2
v 1.1 2.6 0.2
v 1.2 2.6 0.2
v 1.1 2.6 0.1
v 1.2 2.6 0.1
v -1 2.6 -0.1
v -0.9 2.6 -0.1
v 1.1 2.6 -0.1
v 1.2 2.6 -0.1
v -1 2.6 -0.2
v -0.9 2.6 -0.2
v 1.1 2.6 -0.2
v 1.2 2.6 -0.2
v -0.7 2.7 0.3
v -0.6 2.7 0.3
v 0.6 2.7 0.3
v 0.7 2.7 0.3
v -0.7 2.7 0.2
v -0.6 2.7 0.2
v 0.6 2.7 0.2
v 0.7 2.7 0.2
v 1.1 2.7 0.1
v 1.2 2.7 0.1
v 1.1 2.7 -0.1
v 1.2 2.7 -0.1
v 1 2.9 -0.1
v 1.1 2.9 -0.1
v 1 2.9 -0.2
v 1.1 2.9 -0.2
v -1 3.3 0.2
v -0.9 3.3 0.2
v 1 3.3 0.2
v 1.1 3.3 0.2
v -1 3.3 0.1
v -0.9 3.3 0.1
v 1 3.3 0.1
v 1.1 3.3 0.1
v -1 3.4 0.1
v -0.9 3.4 0.1
v 1 3.4 0.1
v 1.1 3.4 0.1
v -1 3.4 -0.1
v -0.9 3.4 -0.1
v 1 3.4 -0.1
v 1.1 3.4 -0.1
v -0.9 3.6 0.3
v -0.8 3.6 0.3
v 0.9 3.6 0.3
v 1 3.6 0.3
v -0.9 3.6 0.2
v -0.8 3.6 0.2
v 0.9 3.6 0.2
v 1 3.6 0.2
v -0.9 3.6 -0.1
v -0.8 3.6 -0.1
v 0.9 3.6 -0.1
v 1 3.6 -0.1
v -0.9 3.6 -0.2
v -0.8 3.6 -0.2
v 0.9 3.6 -0.2
v 1 3.6 -0.2
v -0.8 3.7 0.3
v -0.7 3.7 0.3
v 0.8 3.7 0.3
v 0.9 3.7 0.3
v -0.9 3.7 0.2
v -0.8 3.7 0.2
v -0.7 3.7 0.2
v 0.8 3.7 0.2
v 0.9 3.7 0.2
v 1 3.7 0.2
v -0.9 3.7 -0.1
v -0.8 3.7 -0.1
v -0.7 3.7 -0.1
v 0.8 3.7 -0.1
v 0.9 3.7 -0.1
v 1 3.7 -0.1
v -0.8 3.7 -0.2
v -0.7 3.7 -0.2
v 0.8 3.7 -0.2
v 0.9 3.7 -0.2
v -0.7 3.8 0.3
v -0.6 3.8 0.3
v 0.7 3.8 0.3
v 0.8 3.8 0.3
v -0.8 3.8 0.2
v -0.7 3.8 0.2
v -0.6 3.8 0.2
v 0.7 3.8 0.2
v 0.8 3.8 0.2
v 0.9 3.8 0.2
v -0.8 3.8 -0.1
v -0.7 3.8 -0.1
v -0.6 3.8 -0.1
v 0.7 3.8 -0.1
v 0.8 3.8 -0.1
v 0.9 3.8 -0.1
v -0.7 3.8 -0.2
v -0.6 3.8 -0.2
v 0.7 3.8 -0.2
v 0.8 3.8 -0.2
v -0.6 3.9 0.3
v 0.7 3.9 0.3
v -0.7 3.9 0.2
v -0.6 3.9 0.2
v -0.5 3.9 0.2
v 0.6 3.9 0.2
v 0.7 3.9 0.2
v 0.8 3.9 0.2
v -0.6 3.9 0.1
v -0.5 3.9 0.1
v 0.6 3.9 0.1
v 0.7 3.9 0.1
v -0.6 3.9 -2.98023e-08
v -0.5 3.9 -2.98023e-08
v 0.6 3.9 -2.98023e-08
v 0.7 3.9 -2.98023e-08
v -0.7 3.9 -0.1
v -0.6 3.9 -0.1
v -0.5 3.9 -0.1
v 0.6 3.9 -0.1
v 0.7 3.9 -0.1
v 0.8 3.9 -0.1
v -0.6 3.9 -0.2
v 0.7 3.9 -0.2
v -0.5 4 0.2
v 0.6 4 0.2
v -0.6 4 0.1
v -0.5 4 0.1
v 0.6 4 0.1
v 0.7 4 0.1
v -0.6 4 -2.98023e-08
v -0.5 4 -2.98023e-08
v 0.6 4 -2.98023e-08
v 0.7 4 -2.98023e-08
v -0.5 4 -0.1
v 0.6 4 -0.1

# faces
f 3/3/1 2/3/1 1/3/1
f 4/3/1 2/3/1 3/3/1
f 5/3/1 2/3/1 4/3/1
f 6/3/1 2/3/1 5/3/1
f 9/1/1 8/1/1 7/1/1
f 10/1/1 8/1/1 9/1/1
f 11/1/1 9/1/1 7/1/1
f 12/1/1 9/1/1 11/1/1
f 13/8/1 12/8/1 11/8/1
f 14/8/1 12/8/1 13/8/1
f 15/8/1 12/8/1 14/8/1
f 16/3/1 15/3/1 14/3/1
f 18/3/1 17/3/1 16/3/1
f 21/3/1 18/3/1 16/3/1
f 21/3/1 19/3/1 18/3/1
f 21/3/1 16/3/1 14/3/1
f 22/3/1 19/3/1 21/3/1
f 22/3/1 21/3/1 20/3/1
f 23/3/1 19/3/1 22/3/1
f 24/3/1 22/3/1 20/3/1
f 25/3/1 22/3/1 24/3/1
f 26/3/1 24/3/1 20/3/1
f 27/3/1 24/3/1 26/3/1
f 28/3/1 24/3/1 27/3/1
f 29/3/1 24/3/1 28/3/1
f 32/8/1 31/8/1 30/8/1
f 33/8/1 31/8/1 32/8/1
f 37/3/1 35/3/1 34/3/1
f 40/3/1 39/3/1 38/3/1
f 41/3/1 37/3/1 36/3/1
f 42/3/1 35/3/1 37/3/1
f 42/3/1 41/3/1 40/3/1
f 42/3/1 37/3/1 41/3/1
f 43/3/1 35/3/1 42/3/1
f 44/3/1 40/3/1 38/3/1
f 44/3/1 42/3/1 40/3/1
f 45/3/1 42/3/1 44/3/1
f 46/3/1 42/3/1 45/3/1
f 47/3/1 42/3/1 46/3/1
f 50/8/1 49/8/1 48/8/1
f 51/8/1 49/8/1 50/8/1
f 53/3/1 52/3/1 51/3/1
f 54/3/1 52/3/1 53/3/1
f 59/3/1 56/3/1 55/3/1
f 61/3/1 60/3/1 59/3/1
f 62/3/1 58/3/1 57/3/1
f 63/3/1 61/3/1 59/3/1
f 63/3/1 62/3/1 61/3/1
f 63/3/1 59/3/1 55/3/1
f 64/3/1 62/3/1 63/3/1
f 65/3/1 58/3/1 62/3/1
f 65/3/1 62/3/1 64/3/1
f 66/3/1 58/3/1 65/3/1
f 67/3/1 65/3/1 64/3/1
f 68/3/1 65/3/1 67/3/1
f 71/8/1 70/8/1 69/8/1
f 73/8/1 71/8/1 69/8/1
f 74/8/1 71/8/1 73/8/1
f 75/3/1 72/3/1 71/3/1
f 75/8/1 71/8/1 74/8/1
f 76/3/1 74/3/1 73/3/1
f 77/2/1 75/2/1 74/2/1
f 77/3/1 74/3/1 76/3/1
f 78/3/1 72/3/1 75/3/1
f 78/2/1 75/2/1 77/2/1
f 79/3/1 72/3/1 78/3/1
f 82/3/1 81/3/1 80/3/1
f 83/3/1 81/3/1 82/3/1
f 88/3/1 85/3/1 84/3/1
f 89/3/1 85/3/1 88/3/1
f 90/3/1 87/3/1 86/3/1
f 91/3/1 87/3/1 90/3/1
f 92/3/1 90/3/1 89/3/1
f 93/3/1 90/3/1 92/3/1
f 96/11/1 95/11/1 94/11/1
f 97/11/1 95/11/1 96/11/1
f 102/3/1 99/3/1 98/3/1
f 103/3/1 99/3/1 102/3/1
f 104/3/1 101/3/1 100/3/1
f 105/3/1 101/3/1 104/3/1
f 106/3/1 104/3/1 103/3/1
f 107/3/1 104/3/1 106/3/1
f 110/11/1 109/11/1 108/11/1
f 111/11/1 109/11/1 110/11/1
f 114/3/1 113/3/1 112/3/1
f 115/3/1 113/3/1 114/3/1
f 118/3/1 117/3/1 116/3/1
f 119/3/1 117/3/1 118/3/1
f 124/3/1 121/3/1 120/3/1
f 125/3/1 121/3/1 124/3/1
f 128/3/1 123/3/1 122/3/1
f 129/3/1 123/3/1 128/3/1
f 130/3/1 127/3/1 126/3/1
f 131/3/1 127/3/1 130/3/1
f 134/14/1 133/14/1 132/14/1
f 135/14/1 133/14/1 134/14/1
f 136/14/1 133/14/1 135/14/1
f 137/1/1 136/1/1 135/1/1
f 138/1/1 136/1/1 137/1/1
f 142/11/1 140/11/1 139/11/1
f 143/3/1 141/3/1 140/3/1
f 143/11/1 140/11/1 142/11/1
f 144/3/1 141/3/1 143/3/1
f 145/3/1 141/3/1 144/3/1
f 150/3/1 147/3/1 146/3/1
f 151/3/1 147/3/1 150/3/1
f 152/3/1 149/3/1 148/3/1
f 153/3/1 149/3/1 152/3/1
f 156/1/1 155/1/1 154/1/1
f 157/1/1 155/1/1 156/1/1
f 160/3/1 159/3/1 158/3/1
f 161/3/1 159/3/1 160/3/1
f 164/3/1 163/3/1 162/3/1
f 165/3/1 163/3/1 164/3/1
f 168/3/1 167/3/1 166/3/1
f 169/3/1 167/3/1 168/3/1
f 170/3/1 167/3/1 169/3/1
f 173/3/1 172/3/1 171/3/1
f 174/3/1 172/3/1 173/3/1
f 177/3/1 176/3/1 175/3/1
f 178/3/1 176/3/1 177/3/1
f 181/3/1 180/3/1 179/3/1
f 182/3/1 180/3/1 181/3/1
f 185/14/1 184/14/1 183/14/1
f 186/14/1 184/14/1 185/14/1
f 187/14/1 184/14/1 186/14/1
f 188/1/1 187/1/1 186/1/1
f 189/1/1 187/1/1 188/1/1
f 190/1/1 187/1/1 189/1/1
f 191/1/1 187/1/1 190/1/1
f 194/3/1 193/3/1 192/3/1
f 195/3/1 193/3/1 194/3/1
f 196/3/1 193/3/1 195/3/1
f 199/3/1 198/3/1 197/3/1
f 200/3/1 198/3/1 199/3/1
f 203/3/1 202/3/1 201/3/1
f 204/3/1 202/3/1 203/3/1
f 207/3/1 206/3/1 205/3/1
f 208/3/1 206/3/1 207/3/1
f 211/3/1 210/3/1 209/3/1
f 212/3/1 210/3/1 211/3/1
f 213/3/1 210/3/1 212/3/1
f 216/3/1 215/3/1 214/3/1
f 217/3/1 215/3/1 216/3/1
f 220/3/1 219/3/1 218/3/1
f 221/3/1 219/3/1 220/3/1
f 224/3/1 223/3/1 222/3/1
f 225/3/1 223/3/1 224/3/1
f 228/3/1 227/3/1 226/3/1
f 229/3/1 227/3/1 228/3/1
f 232/5/1 231/5/1 230/5/1
f 233/5/1 231/5/1 232/5/1
f 236/3/1 235/3/1 234/3/1
f 237/3/1 235/3/1 236/3/1
f 240/3/1 239/3/1 238/3/1
f 241/3/1 239/3/1 240/3/1
f 244/8/1 243/8/1 242/8/1
f 245/8/1 243/8/1 244/8/1
f 246/5/1 245/5/1 244/5/1
f 247/5/1 245/5/1 246/5/1
f 250/3/1 249/3/1 248/3/1
f 251/3/1 249/3/1 250/3/1
f 254/1/1 253/1/1 252/1/1
f 255/1/1 253/1/1 254/1/1
f 258/3/1 257/3/1 256/3/1
f 259/3/1 257/3/1 258/3/1
f 262/3/1 261/3/1 260/3/1
f 263/3/1 261/3/1 262/3/1
f 264/3/1 261/3/1 263/3/1
f 267/3/1 266/3/1 265/3/1
f 268/3/1 266/3/1 267/3/1
f 269/3/1 267/3/1 265/3/1
f 270/2/1 268/2/1 267/2/1
f 270/3/1 267/3/1 269/3/1
f 271/3/1 266/3/1 268/3/1
f 271/2/1 268/2/1 270/2/1
f 272/3/1 266/3/1 271/3/1
f 275/3/1 274/3/1 273/3/1
f 276/3/1 274/3/1 275/3/1
f 280/3/1 278/3/1 277/3/1
f 281/3/1 280/3/1 279/3/1
f 282/3/1 278/3/1 280/3/1
f 282/3/1 280/3/1 281/3/1
f 286/3/1 284/3/1 283/3/1
f 287/3/1 286/3/1 285/3/1
f 288/3/1 286/3/1 287/3/1
f 289/3/1 286/3/1 288/3/1
f 290/3/1 284/3/1 286/3/1
f 290/3/1 286/3/1 289/3/1
f 291/3/2 292/3/2 293/3/2
f 293/3/2 294/3/2 295/3/2
f 295/3/2 294/3/2 296/3/2
f 291/3/2 293/3/2 297/3/2
f 293/3/2 295/3/2 297/3/2
f 297/3/2 295/3/2 298/3/2
f 298/3/2 295/3/2 299/3/2
f 299/3/2 295/3/2 300/3/2
f 301/3/2 302/3/2 303/3/2
f 303/3/2 302/3/2 304/3/2
f 305/3/2 306/3/2 309/3/2
f 306/2/2 307/2/2 309/2/2
f 307/3/2 308/3/2 310/3/2
f 309/2/2 307/2/2 310/2/2
f 305/3/2 309/3/2 311/3/2
f 309/3/2 310/3/2 311/3/2
f 311/3/2 310/3/2 312/3/2
f 310/3/2 308/3/2 313/3/2
f 312/3/2 310/3/2 313/3/2
f 313/3/2 308/3/2 314/3/2
f 315/1/2 316/1/2 317/1/2
f 317/1/2 316/1/2 318/1/2
f 319/8/2 320/8/2 321/8/2
f 321/8/2 320/8/2 322/8/2
f 322/3/2 323/3/2 324/3/2
f 324/3/2 323/3/2 325/3/2
f 326/3/2 327/3/2 328/3/2
f 328/3/2 327/3/2 329/3/2
f 330/8/2 331/8/2 332/8/2
f 332/8/2 331/8/2 333/8/2
f 334/3/2 335/3/2 336/3/2
f 336/3/2 335/3/2 337/3/2
f 338/3/2 339/3/2 340/3/2
f 340/3/2 339/3/2 341/3/2
f 342/3/2 343/3/2 344/3/2
f 344/3/2 343/3/2 345/3/2
f 345/3/2 343/3/2 346/3/2
f 347/3/2 348/3/2 349/3/2
f 349/3/2 348/3/2 350/3/2
f 351/3/2 352/3/2 353/3/2
f 353/3/2 352/3/2 354/3/2
f 355/3/2 356/3/2 357/3/2
f 357/3/2 356/3/2 358/3/2
f 359/3/2 360/3/2 361/3/2
f 361/3/2 360/3/2 362/3/2
f 363/3/2 364/3/2 365/3/2
f 365/3/2 364/3/2 366/3/2
f 367/14/2 368/14/2 369/14/2
f 369/14/2 368/14/2 370/14/2
f 370/14/2 368/14/2 371/14/2
f 370/1/2 371/1/2 372/1/2
f 372/1/2 371/1/2 373/1/2
f 373/1/2 371/1/2 374/1/2
f 374/1/2 371/1/2 375/1/2
f 376/3/2 377/3/2 378/3/2
f 378/3/2 377/3/2 379/3/2
f 380/3/2 381/3/2 382/3/2
f 382/3/2 381/3/2 383/3/2
f 384/3/2 385/3/2 386/3/2
f 386/3/2 385/3/2 387/3/2
f 387/3/2 385/3/2 388/3/2
f 389/3/2 390/3/2 391/3/2
f 391/3/2 390/3/2 392/3/2
f 393/3/2 394/3/2 395/3/2
f 395/3/2 394/3/2 396/3/2
f 397/3/2 398/3/2 400/3/2
f 400/3/2 398/3/2 401/3/2
f 399/1/2 400/1/2 402/1/2
f 402/1/2 400/1/2 403/1/2
f 404/14/2 405/14/2 406/14/2
f 406/14/2 405/14/2 407/14/2
f 407/14/2 405/14/2 408/14/2
f 407/1/2 408/1/2 409/1/2
f 409/1/2 408/1/2 410/1/2
f 411/11/2 412/11/2 413/11/2
f 413/11/2 412/11/2 414/11/2
f 414/3/2 415/3/2 416/3/2
f 416/3/2 415/3/2 417/3/2
f 418/11/2 419/11/2 420/11/2
f 420/11/2 419/11/2 421/11/2
f 422/3/2 423/3/2 424/3/2
f 424/3/2 423/3/2 425/3/2
f 426/3/2 427/3/2 430/3/2
f 430/3/2 427/3/2 431/3/2
f 428/3/2 429/3/2 432/3/2
f 432/3/2 429/3/2 433/3/2
f 434/11/2 435/11/2 436/11/2
f 436/11/2 435/11/2 437/11/2
f 438/3/2 439/3/2 440/3/2
f 440/3/2 439/3/2 441/3/2
f 441/3/2 439/3/2 442/3/2
f 443/3/2 444/3/2 447/3/2
f 447/3/2 444/3/2 448/3/2
f 445/3/2 446/3/2 451/3/2
f 451/3/2 446/3/2 452/3/2
f 449/3/2 450/3/2 453/3/2
f 453/3/2 450/3/2 454/3/2
f 455/8/2 456/8/2 458/8/2
f 458/8/2 456/8/2 459/8/2
f 457/3/2 458/3/2 460/3/2
f 458/3/2 459/3/2 460/3/2
f 460/3/2 459/3/2 461/3/2
f 462/3/2 463/3/2 466/3/2
f 466/3/2 463/3/2 467/3/2
f 464/3/2 465/3/2 468/3/2
f 468/3/2 465/3/2 469/3/2
f 467/3/2 468/3/2 470/3/2
f 470/3/2 468/3/2 471/3/2
f 472/8/2 473/8/2 474/8/2
f 474/8/2 473/8/2 475/8/2
f 476/3/2 477/3/2 479/3/2
f 478/3/2 479/3/2 480/3/2
f 479/3/2 477/3/2 481/3/2
f 480/3/2 479/3/2 481/3/2
f 482/3/2 483/3/2 486/3/2
f 486/3/2 483/3/2 487/3/2
f 484/3/2 485/3/2 488/3/2
f 488/3/2 485/3/2 489/3/2
f 487/3/2 488/3/2 490/3/2
f 490/3/2 488/3/2 491/3/2
f 492/5/2 493/5/2 494/5/2
f 494/5/2 493/5/2 495/5/2
f 494/8/2 495/8/2 496/8/2
f 494/8/2 496/8/2 498/8/2
f 496/8/2 497/8/2 498/8/2
f 498/8/2 497/8/2 499/8/2
f 500/3/2 501/3/2 502/3/2
f 502/3/2 501/3/2 503/3/2
f 504/3/2 505/3/2 508/3/2
f 508/3/2 509/3/2 510/3/2
f 506/3/2 507/3/2 511/3/2
f 508/3/2 510/3/2 512/3/2
f 510/3/2 511/3/2 512/3/2
f 504/3/2 508/3/2 512/3/2
f 512/3/2 511/3/2 513/3/2
f 511/3/2 507/3/2 514/3/2
f 513/3/2 511/3/2 514/3/2
f 514/3/2 507/3/2 515/3/2
f 513/3/2 514/3/2 516/3/2
f 516/3/2 514/3/2 517/3/2
f 518/1/2 519/1/2 520/1/2
f 520/1/2 519/1/2 521/1/2
f 521/1/2 519/1/2 522/1/2
f 520/8/2 521/8/2 523/8/2
f 520/8/2 523/8/2 524/8/2
f 524/8/2 523/8/2 525/8/2
f 526/3/2 527/3/2 529/3/2
f 528/3/2 529/3/2 530/3/2
f 530/3/2 529/3/2 531/3/2
f 531/3/2 529/3/2 532/3/2
f 529/3/2 527/3/2 533/3/2
f 532/3/2 529/3/2 533/3/2
f 534/3/2 535/3/2 538/3/2
f 536/3/2 537/3/2 539/3/2
f 539/3/2 537/3/2 540/3/2
f 538/3/2 539/3/2 540/3/2
f 540/3/2 537/3/2 541/3/2
f 534/3/2 538/3/2 542/3/2
f 538/3/2 540/3/2 542/3/2
f 542/3/2 540/3/2 543/3/2
f 543/3/2 540/3/2 544/3/2
f 544/3/2 540/3/2 545/3/2
f 546/3/2 547/3/2 548/3/2
f 548/3/2 547/3/2 549/3/2
f 550/3/2 551/3/2 553/3/2
f 553/3/2 551/3/2 554/3/2
f 552/3/2 553/3/2 554/3/2
f 552/3/2 554/3/2 556/3/2
f 554/3/2 555/3/2 556/3/2
f 556/3/2 555/3/2 557/3/2
f 557/3/2 555/3/2 558/3/2
f 558/3/2 555/3/2 559/3/2
f 557/3/2 558/3/2 560/3/2
f 560/3/2 558/3/2 561/3/2
f 562/3/2 563/3/2 564/3/2
f 564/3/2 563/3/2 565/3/2
f 565/3/2 563/3/2 566/3/2
f 566/3/2 563/3/2 567/3/2
f 571/3/3 569/3/3 568/3/3
f 572/3/3 569/3/3 571/3/3
f 574/3/3 571/3/3 570/3/3
f 574/3/3 573/3/3 572/3/3
f 574/3/3 572/3/3 571/3/3
f 575/3/3 573/3/3 574/3/3
f 576/3/3 573/3/3 575/3/3
f 577/3/3 573/3/3 576/3/3
f 578/3/3 573/3/3 577/3/3
f 581/3/3 574/3/3 570/3/3
f 582/3/3 574/3/3 581/3/3
f 583/3/3 574/3/3 582/3/3
f 584/3/3 576/3/3 575/3/3
f 585/3/3 576/3/3 584/3/3
f 586/2/3 577/2/3 576/2/3
f 586/3/3 576/3/3 585/3/3
f 587/2/3 577/2/3 586/2/3
f 588/3/3 578/3/3 577/3/3
f 588/2/3 577/2/3 587/2/3
f 588/3/3 579/3/3 578/3/3
f 589/3/3 579/3/3 588/3/3
f 590/3/3 579/3/3 589/3/3
f 594/3/3 581/3/3 580/3/3
f 594/3/3 582/3/3 581/3/3
f 595/3/3 582/3/3 594/3/3
f 596/3/3 587/3/3 586/3/3
f 596/3/3 586/3/3 585/3/3
f 597/3/3 587/3/3 596/3/3
f 598/2/3 589/2/3 588/2/3
f 598/3/3 587/3/3 597/3/3
f 598/2/3 588/2/3 587/2/3
f 599/3/3 591/3/3 590/3/3
f 599/2/3 589/2/3 598/2/3
f 599/3/3 590/3/3 589/3/3
f 600/3/3 594/3/3 580/3/3
f 601/3/3 594/3/3 600/3/3
f 602/3/3 599/3/3 598/3/3
f 602/3/3 598/3/3 597/3/3
f 603/3/3 599/3/3 602/3/3
f 604/3/3 591/3/3 599/3/3
f 604/3/3 599/3/3 603/3/3
f 605/3/3 591/3/3 604/3/3
f 606/3/3 604/3/3 603/3/3
f 607/2/3 605/2/3 604/2/3
f 607/3/3 604/3/3 606/3/3
f 609/3/3 606/3/3 603/3/3
f 610/2/3 607/2/3 606/2/3
f 610/3/3 606/3/3 609/3/3
f 611/3/3 591/3/3 605/3/3
f 611/2/3 607/2/3 610/2/3
f 611/2/3 605/2/3 607/2/3
f 612/14/3 593/14/3 592/14/3
f 613/14/3 593/14/3 612/14/3
f 615/3/3 610/3/3 609/3/3
f 615/3/3 609/3/3 608/3/3
f 615/3/3 611/3/3 610/3/3
f 616/3/3 611/3/3 615/3/3
f 617/3/3 591/3/3 611/3/3
f 617/3/3 611/3/3 616/3/3
f 619/3/3 616/3/3 615/3/3
f 619/3/3 615/3/3 614/3/3
f 620/3/3 616/3/3 619/3/3
f 621/2/3 617/2/3 616/2/3
f 621/3/3 616/3/3 620/3/3
f 624/3/3 620/3/3 619/3/3
f 624/3/3 619/3/3 618/3/3
f 624/2/3 621/2/3 620/2/3
f 625/2/3 621/2/3 624/2/3
f 626/3/3 624/3/3 618/3/3
f 626/3/3 625/3/3 624/3/3
f 627/3/3 625/3/3 626/3/3
f 628/2/3 621/2/3 625/2/3
f 628/3/3 625/3/3 627/3/3
f 629/3/3 591/3/3 617/3/3
f 629/2/3 621/2/3 628/2/3
f 629/2/3 617/2/3 621/2/3
f 630/3/3 628/3/3 627/3/3
f 630/3/3 629/3/3 628/3/3
f 631/3/3 629/3/3 630/3/3
f 632/3/3 629/3/3 631/3/3
f 633/3/3 591/3/3 629/3/3
f 633/3/3 629/3/3 632/3/3
f 636/3/3 632/3/3 631/3/3
f 637/2/3 633/2/3 632/2/3
f 637/3/3 632/3/3 636/3/3
f 638/14/3 623/14/3 622/14/3
f 639/14/3 623/14/3 638/14/3
f 641/3/3 635/3/3 634/3/3
f 642/3/3 635/3/3 641/3/3
f 645/3/3 636/3/3 631/3/3
f 646/3/3 643/3/3 642/3/3
f 646/3/3 641/3/3 640/3/3
f 646/3/3 642/3/3 641/3/3
f 649/3/3 645/3/3 644/3/3
f 650/2/3 633/2/3 637/2/3
f 650/2/3 637/2/3 636/2/3
f 651/3/3 591/3/3 633/3/3
f 651/2/3 633/2/3 650/2/3
f 652/3/3 647/3/3 646/3/3
f 653/3/3 649/3/3 648/3/3
f 654/3/3 645/3/3 649/3/3
f 654/3/3 649/3/3 653/3/3
f 655/2/3 650/2/3 636/2/3
f 655/3/3 645/3/3 654/3/3
f 655/3/3 636/3/3 645/3/3
f 656/3/3 651/3/3 650/3/3
f 656/2/3 650/2/3 655/2/3
f 657/3/3 591/3/3 651/3/3
f 657/3/3 651/3/3 656/3/3
f 658/3/3 591/3/3 657/3/3
f 659/3/3 652/3/3 646/3/3
f 659/3/3 654/3/3 653/3/3
f 659/3/3 653/3/3 652/3/3
f 659/3/3 646/3/3 640/3/3
f 660/3/3 654/3/3 659/3/3
f 661/2/3 655/2/3 654/2/3
f 661/3/3 654/3/3 660/3/3
f 662/3/3 656/3/3 655/3/3
f 662/2/3 655/2/3 661/2/3
f 662/3/3 657/3/3 656/3/3
f 663/3/3 657/3/3 662/3/3
f 664/3/3 657/3/3 663/3/3
f 665/3/3 661/3/3 660/3/3
f 665/3/3 663/3/3 662/3/3
f 665/3/3 662/3/3 661/3/3
f 666/3/3 663/3/3 665/3/3
f 667/3/3 663/3/3 666/3/3
f 668/3/3 663/3/3 667/3/3
f 669/3/3 667/3/3 666/3/3
f 670/3/3 667/3/3 669/3/3
f 676/1/3 672/1/3 671/1/3
f 677/8/3 673/8/3 672/8/3
f 677/1/3 672/1/3 676/1/3
f 678/8/3 673/8/3 677/8/3
f 679/8/3 673/8/3 678/8/3
f 680/3/3 675/3/3 674/3/3
f 681/3/3 675/3/3 680/3/3
f 682/3/3 675/3/3 681/3/3
f 683/3/3 675/3/3 682/3/3
f 685/8/3 677/8/3 676/8/3
f 685/8/3 678/8/3 677/8/3
f 686/7/3 679/7/3 678/7/3
f 686/8/3 678/8/3 685/8/3
f 687/8/3 680/8/3 679/8/3
f 687/7/3 679/7/3 686/7/3
f 687/8/3 681/8/3 680/8/3
f 688/8/3 681/8/3 687/8/3
f 690/3/3 684/3/3 683/3/3
f 690/3/3 683/3/3 682/3/3
f 691/3/3 684/3/3 690/3/3
f 692/3/3 684/3/3 691/3/3
f 693/3/3 684/3/3 692/3/3
f 696/1/3 676/1/3 671/1/3
f 697/8/3 685/8/3 676/8/3
f 697/1/3 676/1/3 696/1/3
f 698/7/3 688/7/3 687/7/3
f 698/8/3 685/8/3 697/8/3
f 698/7/3 686/7/3 685/7/3
f 698/7/3 687/7/3 686/7/3
f 699/7/3 688/7/3 698/7/3
f 700/8/3 689/8/3 688/8/3
f 702/3/3 692/3/3 691/3/3
f 703/3/3 692/3/3 702/3/3
f 704/3/3 692/3/3 703/3/3
f 705/3/3 695/3/3 694/3/3
f 706/3/3 695/3/3 705/3/3
f 710/8/3 698/8/3 697/8/3
f 710/8/3 699/8/3 698/8/3
f 711/8/3 699/8/3 710/8/3
f 712/7/3 688/7/3 699/7/3
f 712/8/3 699/8/3 711/8/3
f 713/7/3 688/7/3 712/7/3
f 714/7/3 688/7/3 713/7/3
f 715/8/3 701/8/3 700/8/3
f 715/7/3 688/7/3 714/7/3
f 715/8/3 700/8/3 688/8/3
f 718/3/3 707/3/3 706/3/3
f 719/3/3 707/3/3 718/3/3
f 721/11/3 709/11/3 708/11/3
f 722/11/3 709/11/3 721/11/3
f 723/11/3 709/11/3 722/11/3
f 725/8/3 713/8/3 712/8/3
f 725/8/3 712/8/3 711/8/3
f 726/8/3 713/8/3 725/8/3
f 727/7/3 714/7/3 713/7/3
f 727/8/3 713/8/3 726/8/3
f 728/8/3 715/8/3 714/8/3
f 728/7/3 714/7/3 727/7/3
f 729/8/3 701/8/3 715/8/3
f 729/8/3 715/8/3 728/8/3
f 730/8/3 701/8/3 729/8/3
f 731/3/3 703/3/3 702/3/3
f 731/8/3 701/8/3 730/8/3
f 731/3/3 702/3/3 701/3/3
f 732/3/3 703/3/3 731/3/3
f 733/3/3 703/3/3 732/3/3
f 735/1/3 717/1/3 716/1/3
f 736/1/3 717/1/3 735/1/3
f 737/1/3 717/1/3 736/1/3
f 738/1/3 717/1/3 737/1/3
f 740/3/3 720/3/3 719/3/3
f 741/3/3 720/3/3 740/3/3
f 743/11/3 721/11/3 708/11/3
f 744/11/3 724/11/3 723/11/3
f 744/11/3 723/11/3 722/11/3
f 744/10/3 722/10/3 721/10/3
f 745/11/3 724/11/3 744/11/3
f 746/11/3 724/11/3 745/11/3
f 748/8/3 727/8/3 726/8/3
f 748/8/3 728/8/3 727/8/3
f 749/7/3 729/7/3 728/7/3
f 749/8/3 728/8/3 748/8/3
f 750/7/3 729/7/3 749/7/3
f 751/7/3 729/7/3 750/7/3
f 752/6/3 730/6/3 729/6/3
f 752/7/3 729/7/3 751/7/3
f 753/7/3 731/7/3 730/7/3
f 753/6/3 730/6/3 752/6/3
f 754/3/3 732/3/3 731/3/3
f 754/7/3 731/7/3 753/7/3
f 755/3/3 732/3/3 754/3/3
f 757/1/3 735/1/3 734/1/3
f 757/1/3 736/1/3 735/1/3
f 758/1/3 736/1/3 757/1/3
f 759/14/3 737/14/3 736/14/3
f 759/1/3 736/1/3 758/1/3
f 760/1/3 739/1/3 738/1/3
f 760/14/3 737/14/3 759/14/3
f 760/1/3 738/1/3 737/1/3
f 761/1/3 739/1/3 760/1/3
f 762/1/3 739/1/3 761/1/3
f 766/11/3 721/11/3 743/11/3
f 766/10/3 744/10/3 721/10/3
f 766/10/3 745/10/3 744/10/3
f 767/10/3 745/10/3 766/10/3
f 768/11/3 747/11/3 746/11/3
f 768/10/3 745/10/3 767/10/3
f 768/11/3 746/11/3 745/11/3
f 769/11/3 747/11/3 768/11/3
f 770/11/3 747/11/3 769/11/3
f 771/8/3 748/8/3 726/8/3
f 772/8/3 748/8/3 771/8/3
f 773/7/3 749/7/3 748/7/3
f 773/8/3 748/8/3 772/8/3
f 774/8/3 750/8/3 749/8/3
f 774/7/3 749/7/3 773/7/3
f 775/7/3 751/7/3 750/7/3
f 775/8/3 750/8/3 774/8/3
f 776/6/3 752/6/3 751/6/3
f 776/7/3 751/7/3 775/7/3
f 776/6/3 753/6/3 752/6/3
f 776/6/3 754/6/3 753/6/3
f 777/7/3 755/7/3 754/7/3
f 777/6/3 754/6/3 776/6/3
f 778/7/3 755/7/3 777/7/3
f 779/1/3 757/1/3 756/1/3
f 779/1/3 758/1/3 757/1/3
f 780/9/3 759/9/3 758/9/3
f 780/9/3 760/9/3 759/9/3
f 780/1/3 758/1/3 779/1/3
f 781/9/3 760/9/3 780/9/3
f 782/1/3 763/1/3 762/1/3
f 782/1/3 762/1/3 761/1/3
f 784/11/3 767/11/3 766/11/3
f 784/10/3 768/10/3 767/10/3
f 784/10/3 769/10/3 768/10/3
f 785/10/3 769/10/3 784/10/3
f 786/7/3 774/7/3 773/7/3
f 786/7/3 775/7/3 774/7/3
f 786/7/3 773/7/3 772/7/3
f 787/8/3 778/8/3 777/8/3
f 787/7/3 775/7/3 786/7/3
f 787/8/3 776/8/3 775/8/3
f 787/8/3 777/8/3 776/8/3
f 788/8/3 778/8/3 787/8/3
f 789/8/3 778/8/3 788/8/3
f 790/7/3 779/7/3 778/7/3
f 790/8/3 778/8/3 789/8/3
f 791/1/3 780/1/3 779/1/3
f 791/7/3 779/7/3 790/7/3
f 792/9/3 760/9/3 781/9/3
f 792/12/3 781/12/3 780/12/3
f 793/14/3 761/14/3 760/14/3
f 793/9/3 760/9/3 792/9/3
f 794/11/3 766/11/3 743/11/3
f 794/11/3 785/11/3 784/11/3
f 794/11/3 784/11/3 766/11/3
f 795/11/3 785/11/3 794/11/3
f 796/10/3 769/10/3 785/10/3
f 796/11/3 785/11/3 795/11/3
f 797/11/3 770/11/3 769/11/3
f 797/10/3 769/10/3 796/10/3
f 798/7/3 786/7/3 772/7/3
f 798/8/3 772/8/3 771/8/3
f 799/8/3 788/8/3 787/8/3
f 799/7/3 786/7/3 798/7/3
f 799/8/3 787/8/3 786/8/3
f 800/8/3 788/8/3 799/8/3
f 801/6/3 789/6/3 788/6/3
f 801/8/3 788/8/3 800/8/3
f 802/6/3 789/6/3 801/6/3
f 803/8/3 790/8/3 789/8/3
f 803/6/3 789/6/3 802/6/3
f 803/8/3 791/8/3 790/8/3
f 804/1/3 780/1/3 791/1/3
f 804/8/3 791/8/3 803/8/3
f 805/12/3 792/12/3 780/12/3
f 805/1/3 780/1/3 804/1/3
f 806/13/3 793/13/3 792/13/3
f 806/12/3 792/12/3 805/12/3
f 807/14/3 761/14/3 793/14/3
f 807/13/3 793/13/3 806/13/3
f 808/1/3 783/1/3 782/1/3
f 808/14/3 761/14/3 807/14/3
f 808/1/3 782/1/3 761/1/3
f 809/1/3 783/1/3 808/1/3
f 810/1/3 783/1/3 809/1/3
f 811/1/3 743/1/3 742/1/3
f 812/11/3 794/11/3 743/11/3
f 812/1/3 743/1/3 811/1/3
f 813/8/3 799/8/3 798/8/3
f 813/8/3 798/8/3 771/8/3
f 814/8/3 799/8/3 813/8/3
f 815/7/3 800/7/3 799/7/3
f 815/8/3 799/8/3 814/8/3
f 816/7/3 800/7/3 815/7/3
f 817/6/3 802/6/3 801/6/3
f 817/7/3 800/7/3 816/7/3
f 817/6/3 801/6/3 800/6/3
f 818/6/3 802/6/3 817/6/3
f 819/6/3 802/6/3 818/6/3
f 820/8/3 803/8/3 802/8/3
f 820/6/3 802/6/3 819/6/3
f 821/1/3 807/1/3 806/1/3
f 821/8/3 803/8/3 820/8/3
f 821/1/3 806/1/3 805/1/3
f 821/1/3 805/1/3 804/1/3
f 821/1/3 804/1/3 803/1/3
f 821/1/3 808/1/3 807/1/3
f 821/1/3 809/1/3 808/1/3
f 822/1/3 809/1/3 821/1/3
f 823/1/3 809/1/3 822/1/3
f 824/1/3 809/1/3 823/1/3
f 825/1/3 809/1/3 824/1/3
f 826/10/3 795/10/3 794/10/3
f 826/11/3 796/11/3 795/11/3
f 826/11/3 797/11/3 796/11/3
f 827/11/3 797/11/3 826/11/3
f 828/7/3 814/7/3 813/7/3
f 828/9/3 815/9/3 814/9/3
f 829/8/3 816/8/3 815/8/3
f 829/9/3 815/9/3 828/9/3
f 830/9/3 818/9/3 817/9/3
f 830/7/3 817/7/3 816/7/3
f 831/6/3 819/6/3 818/6/3
f 831/9/3 818/9/3 830/9/3
f 832/1/3 824/1/3 823/1/3
f 833/1/3 824/1/3 832/1/3
f 835/11/3 794/11/3 812/11/3
f 836/7/3 829/7/3 828/7/3
f 836/7/3 828/7/3 813/7/3
f 836/8/3 813/8/3 771/8/3
f 837/8/3 816/8/3 829/8/3
f 837/7/3 829/7/3 836/7/3
f 838/7/3 830/7/3 816/7/3
f 838/8/3 816/8/3 837/8/3
f 839/6/3 819/6/3 831/6/3
f 839/8/3 820/8/3 819/8/3
f 839/6/3 831/6/3 830/6/3
f 840/1/3 822/1/3 821/1/3
f 840/8/3 820/8/3 839/8/3
f 840/1/3 821/1/3 820/1/3
f 841/1/3 822/1/3 840/1/3
f 842/14/3 823/14/3 822/14/3
f 842/1/3 822/1/3 841/1/3
f 843/1/3 832/1/3 823/1/3
f 843/14/3 823/14/3 842/14/3
f 844/11/3 794/11/3 835/11/3
f 844/10/3 827/10/3 826/10/3
f 844/10/3 826/10/3 794/10/3
f 845/10/3 827/10/3 844/10/3
f 846/11/3 797/11/3 827/11/3
f 846/10/3 827/10/3 845/10/3
f 847/11/3 770/11/3 797/11/3
f 847/11/3 797/11/3 846/11/3
f 848/8/3 837/8/3 836/8/3
f 848/8/3 836/8/3 771/8/3
f 849/7/3 838/7/3 837/7/3
f 849/8/3 837/8/3 848/8/3
f 850/7/3 830/7/3 838/7/3
f 850/7/3 838/7/3 849/7/3
f 850/6/3 839/6/3 830/6/3
f 850/6/3 840/6/3 839/6/3
f 851/6/3 840/6/3 850/6/3
f 852/8/3 841/8/3 840/8/3
f 852/6/3 840/6/3 851/6/3
f 853/1/3 843/1/3 842/1/3
f 853/8/3 841/8/3 852/8/3
f 853/1/3 842/1/3 841/1/3
f 854/1/3 843/1/3 853/1/3
f 855/1/3 832/1/3 843/1/3
f 855/1/3 843/1/3 854/1/3
f 856/1/3 832/1/3 855/1/3
f 857/1/3 832/1/3 856/1/3
f 858/1/3 832/1/3 857/1/3
f 860/11/3 845/11/3 844/11/3
f 860/10/3 847/10/3 846/10/3
f 860/10/3 846/10/3 845/10/3
f 861/10/3 847/10/3 860/10/3
f 862/7/3 849/7/3 848/7/3
f 862/8/3 851/8/3 850/8/3
f 862/8/3 850/8/3 849/8/3
f 863/8/3 851/8/3 862/8/3
f 864/6/3 852/6/3 851/6/3
f 864/8/3 851/8/3 863/8/3
f 864/6/3 853/6/3 852/6/3
f 865/8/3 854/8/3 853/8/3
f 865/6/3 853/6/3 864/6/3
f 866/8/3 854/8/3 865/8/3
f 867/1/3 855/1/3 854/1/3
f 867/8/3 854/8/3 866/8/3
f 868/9/3 857/9/3 856/9/3
f 868/12/3 856/12/3 855/12/3
f 869/14/3 858/14/3 857/14/3
f 869/9/3 857/9/3 868/9/3
f 870/1/3 859/1/3 858/1/3
f 872/11/3 861/11/3 860/11/3
f 872/11/3 844/11/3 835/11/3
f 872/11/3 860/11/3 844/11/3
f 873/10/3 847/10/3 861/10/3
f 873/11/3 861/11/3 872/11/3
f 874/11/3 770/11/3 847/11/3
f 874/1/3 771/1/3 770/1/3
f 875/8/3 848/8/3 771/8/3
f 875/1/3 771/1/3 874/1/3
f 876/7/3 863/7/3 862/7/3
f 876/8/3 848/8/3 875/8/3
f 876/7/3 862/7/3 848/7/3
f 877/7/3 863/7/3 876/7/3
f 878/7/3 863/7/3 877/7/3
f 879/8/3 864/8/3 863/8/3
f 879/7/3 863/7/3 878/7/3
f 879/8/3 865/8/3 864/8/3
f 879/8/3 866/8/3 865/8/3
f 880/8/3 866/8/3 879/8/3
f 881/8/3 866/8/3 880/8/3
f 882/7/3 867/7/3 866/7/3
f 882/8/3 866/8/3 881/8/3
f 883/1/3 855/1/3 867/1/3
f 883/7/3 867/7/3 882/7/3
f 884/12/3 868/12/3 855/12/3
f 884/1/3 855/1/3 883/1/3
f 885/13/3 869/13/3 868/13/3
f 885/12/3 868/12/3 884/12/3
f 886/14/3 858/14/3 869/14/3
f 886/13/3 869/13/3 885/13/3
f 887/1/3 835/1/3 834/1/3
f 888/11/3 872/11/3 835/11/3
f 888/1/3 835/1/3 887/1/3
f 889/10/3 847/10/3 873/10/3
f 889/10/3 873/10/3 872/10/3
f 890/11/3 874/11/3 847/11/3
f 890/10/3 847/10/3 889/10/3
f 891/11/3 874/11/3 890/11/3
f 892/7/3 878/7/3 877/7/3
f 892/8/3 877/8/3 876/8/3
f 892/8/3 876/8/3 875/8/3
f 893/8/3 879/8/3 878/8/3
f 893/7/3 878/7/3 892/7/3
f 894/7/3 880/7/3 879/7/3
f 894/8/3 879/8/3 893/8/3
f 895/6/3 881/6/3 880/6/3
f 895/7/3 880/7/3 894/7/3
f 896/6/3 881/6/3 895/6/3
f 897/6/3 881/6/3 896/6/3
f 898/7/3 882/7/3 881/7/3
f 898/6/3 881/6/3 897/6/3
f 899/7/3 882/7/3 898/7/3
f 900/1/3 884/1/3 883/1/3
f 901/1/3 884/1/3 900/1/3
f 902/9/3 885/9/3 884/9/3
f 902/1/3 884/1/3 901/1/3
f 902/9/3 886/9/3 885/9/3
f 903/9/3 886/9/3 902/9/3
f 904/14/3 858/14/3 886/14/3
f 904/9/3 886/9/3 903/9/3
f 905/1/3 870/1/3 858/1/3
f 905/14/3 858/14/3 904/14/3
f 905/1/3 871/1/3 870/1/3
f 906/1/3 871/1/3 905/1/3
f 907/1/3 871/1/3 906/1/3
f 908/11/3 872/11/3 888/11/3
f 908/10/3 889/10/3 872/10/3
f 909/11/3 890/11/3 889/11/3
f 909/10/3 889/10/3 908/10/3
f 910/11/3 890/11/3 909/11/3
f 912/8/3 893/8/3 892/8/3
f 912/8/3 892/8/3 875/8/3
f 913/8/3 893/8/3 912/8/3
f 914/7/3 894/7/3 893/7/3
f 914/8/3 893/8/3 913/8/3
f 914/7/3 896/7/3 895/7/3
f 914/7/3 895/7/3 894/7/3
f 915/6/3 897/6/3 896/6/3
f 915/7/3 896/7/3 914/7/3
f 916/7/3 898/7/3 897/7/3
f 916/6/3 897/6/3 915/6/3
f 917/7/3 898/7/3 916/7/3
f 918/1/3 903/1/3 902/1/3
f 918/1/3 902/1/3 901/1/3
f 919/1/3 903/1/3 918/1/3
f 920/14/3 904/14/3 903/14/3
f 920/1/3 903/1/3 919/1/3
f 921/1/3 906/1/3 905/1/3
f 921/14/3 904/14/3 920/14/3
f 921/1/3 905/1/3 904/1/3
f 922/1/3 906/1/3 921/1/3
f 923/1/3 906/1/3 922/1/3
f 924/3/3 765/3/3 764/3/3
f 925/3/3 765/3/3 924/3/3
f 926/11/3 909/11/3 908/11/3
f 926/11/3 908/11/3 888/11/3
f 927/11/3 909/11/3 926/11/3
f 930/5/3 912/5/3 911/5/3
f 931/8/3 913/8/3 912/8/3
f 931/5/3 912/5/3 930/5/3
f 932/8/3 913/8/3 931/8/3
f 933/7/3 914/7/3 913/7/3
f 933/8/3 913/8/3 932/8/3
f 934/8/3 917/8/3 916/8/3
f 934/7/3 914/7/3 933/7/3
f 934/8/3 915/8/3 914/8/3
f 934/8/3 916/8/3 915/8/3
f 935/8/3 917/8/3 934/8/3
f 936/1/3 920/1/3 919/1/3
f 936/1/3 922/1/3 921/1/3
f 936/1/3 921/1/3 920/1/3
f 937/1/3 922/1/3 936/1/3
f 941/8/3 929/8/3 928/8/3
f 942/5/3 930/5/3 929/5/3
f 942/8/3 929/8/3 941/8/3
f 943/4/3 931/4/3 930/4/3
f 943/5/3 930/5/3 942/5/3
f 944/8/3 932/8/3 931/8/3
f 944/4/3 931/4/3 943/4/3
f 945/7/3 935/7/3 934/7/3
f 945/8/3 932/8/3 944/8/3
f 945/7/3 934/7/3 933/7/3
f 945/7/3 933/7/3 932/7/3
f 946/7/3 935/7/3 945/7/3
f 947/8/3 917/8/3 935/8/3
f 947/7/3 935/7/3 946/7/3
f 948/8/3 917/8/3 947/8/3
f 949/8/3 917/8/3 948/8/3
f 951/3/3 939/3/3 938/3/3
f 952/3/3 939/3/3 951/3/3
f 953/4/3 944/4/3 943/4/3
f 953/4/3 943/4/3 942/4/3
f 953/8/3 942/8/3 941/8/3
f 953/4/3 945/4/3 944/4/3
f 954/4/3 945/4/3 953/4/3
f 955/4/3 945/4/3 954/4/3
f 956/7/3 946/7/3 945/7/3
f 956/4/3 945/4/3 955/4/3
f 957/7/3 946/7/3 956/7/3
f 958/8/3 948/8/3 947/8/3
f 958/7/3 946/7/3 957/7/3
f 958/8/3 947/8/3 946/8/3
f 959/8/3 948/8/3 958/8/3
f 960/8/3 948/8/3 959/8/3
f 962/3/3 951/3/3 950/3/3
f 963/3/3 951/3/3 962/3/3
f 964/1/3 941/1/3 940/1/3
f 964/8/3 953/8/3 941/8/3
f 965/7/3 954/7/3 953/7/3
f 965/8/3 953/8/3 964/8/3
f 966/4/3 955/4/3 954/4/3
f 966/7/3 954/7/3 965/7/3
f 967/5/3 957/5/3 956/5/3
f 967/4/3 955/4/3 966/4/3
f 967/5/3 956/5/3 955/5/3
f 968/8/3 959/8/3 958/8/3
f 968/5/3 957/5/3 967/5/3
f 968/8/3 958/8/3 957/8/3
f 969/8/3 959/8/3 968/8/3
f 973/3/3 962/3/3 961/3/3
f 974/3/3 962/3/3 973/3/3
f 975/1/3 965/1/3 964/1/3
f 975/1/3 964/1/3 940/1/3
f 976/8/3 966/8/3 965/8/3
f 976/1/3 965/1/3 975/1/3
f 976/8/3 967/8/3 966/8/3
f 977/8/3 967/8/3 976/8/3
f 979/3/3 972/3/3 971/3/3
f 979/3/3 971/3/3 970/3/3
f 980/3/3 972/3/3 979/3/3
f 981/3/3 972/3/3 980/3/3
f 982/3/3 980/3/3 979/3/3
f 982/3/3 979/3/3 978/3/3
f 983/3/3 980/3/3 982/3/3
f 988/3/3 985/3/3 984/3/3
f 989/3/3 985/3/3 988/3/3
f 990/3/3 987/3/3 986/3/3
f 991/3/3 987/3/3 990/3/3
f 994/3/3 993/3/3 992/3/3
f 995/3/3 993/3/3 994/3/3
f 998/3/3 997/3/3 996/3/3
f 999/3/3 997/3/3 998/3/3
f 1002/3/3 1001/3/3 1000/3/3
f 1003/3/3 1001/3/3 1002/3/3
f 1011/3/3 1005/3/3 1004/3/3
f 1011/3/3 1006/3/3 1005/3/3
f 1012/3/3 1006/3/3 1011/3/3
f 1013/3/3 1006/3/3 1012/3/3
f 1018/3/3 1008/3/3 1007/3/3
f 1019/3/3 1008/3/3 1018/3/3
f 1020/3/3 1010/3/3 1009/3/3
f 1021/2/3 1011/2/3 1010/2/3
f 1021/3/3 1010/3/3 1020/3/3
f 1021/2/3 1012/2/3 1011/2/3
f 1022/2/3 1012/2/3 1021/2/3
f 1024/3/3 1015/3/3 1014/3/3
f 1025/3/3 1015/3/3 1024/3/3
f 1026/3/3 1017/3/3 1016/3/3
f 1027/3/3 1017/3/3 1026/3/3
f 1028/3/3 1023/3/3 1022/3/3
f 1028/3/3 1022/3/3 1021/3/3
f 1029/3/3 1023/3/3 1028/3/3
f 1032/3/3 1031/3/3 1030/3/3
f 1033/3/3 1031/3/3 1032/3/3
f 1034/3/3 1031/3/3 1033/3/3
f 1035/3/3 1031/3/3 1034/3/3
f 1038/3/3 1037/3/3 1036/3/3
f 1039/3/3 1037/3/3 1038/3/3
f 1041/3/3 1040/3/3 1039/3/3
f 1042/3/3 1040/3/3 1041/3/3
f 1047/3/3 1044/3/3 1043/3/3
f 1047/3/3 1045/3/3 1044/3/3
f 1048/3/3 1045/3/3 1047/3/3
f 1049/3/3 1045/3/3 1048/3/3
f 1051/3/3 1047/3/3 1046/3/3
f 1051/3/3 1048/3/3 1047/3/3
f 1052/3/3 1048/3/3 1051/3/3
f 1053/3/3 1048/3/3 1052/3/3
f 1054/3/3 1051/3/3 1050/3/3
f 1054/3/3 1052/3/3 1051/3/3
f 1055/3/3 1052/3/3 1054/3/3
f 1059/3/3 1057/3/3 1056/3/3
f 1059/3/3 1058/3/3 1057/3/3
f 1060/3/3 1058/3/3 1059/3/3
f 1063/3/3 1062/3/3 1061/3/3
f 1064/3/3 1062/3/3 1063/3/3
f 1068/3/3 1066/3/3 1065/3/3
f 1069/3/3 1068/3/3 1067/3/3
f 1070/3/3 1066/3/3 1068/3/3
f 1070/3/3 1068/3/3 1069/3/3
f 1073/3/3 1072/3/3 1071/3/3
f 1074/3/3 1072/3/3 1073/3/3
f 1075/3/3 1072/3/3 1074/3/3
f 1076/3/3 1072/3/3 1075/3/3
f 1077/3/4 1078/3/4 1079/3/4
f 1079/3/4 1078/3/4 1080/3/4
f 1081/3/4 1082/3/4 1083/3/4
f 1083/3/4 1082/3/4 1084/3/4
f 1085/3/4 1086/3/4 1087/3/4
f 1087/3/4 1086/3/4 1088/3/4
f 1091/3/4 1092/3/4 1093/3/4
f 1093/3/4 1092/3/4 1094/3/4
f 1094/3/4 1092/3/4 1095/3/4
f 1089/1/4 1090/1/4 1098/1/4
f 1096/3/4 1097/3/4 1100/3/4
f 1100/3/4 1097/3/4 1101/3/4
f 1089/1/4 1098/1/4 1104/1/4
f 1098/8/4 1099/8/4 1105/8/4
f 1104/1/4 1098/1/4 1105/1/4
f 1102/3/4 1103/3/4 1106/3/4
f 1106/3/4 1103/3/4 1107/3/4
f 1105/8/4 1099/8/4 1111/8/4
f 1111/8/4 1099/8/4 1112/8/4
f 1107/3/4 1108/3/4 1114/3/4
f 1114/3/4 1108/3/4 1115/3/4
f 1109/11/4 1110/11/4 1117/11/4
f 1112/8/4 1113/8/4 1119/8/4
f 1119/8/4 1113/8/4 1120/8/4
f 1115/3/4 1116/3/4 1121/3/4
f 1121/3/4 1116/3/4 1122/3/4
f 1117/11/4 1118/11/4 1125/11/4
f 1109/11/4 1117/11/4 1125/11/4
f 1125/11/4 1118/11/4 1126/11/4
f 1127/8/4 1128/8/4 1132/8/4
f 1132/8/4 1128/8/4 1133/8/4
f 1128/3/4 1129/3/4 1134/3/4
f 1134/3/4 1129/3/4 1135/3/4
f 1133/8/4 1128/8/4 1136/8/4
f 1128/3/4 1134/3/4 1137/3/4
f 1136/8/4 1128/8/4 1137/8/4
f 1137/3/4 1134/3/4 1138/3/4
f 1123/14/4 1124/14/4 1141/14/4
f 1124/1/4 1125/1/4 1142/1/4
f 1141/14/4 1124/14/4 1142/14/4
f 1125/11/4 1126/11/4 1143/11/4
f 1142/1/4 1125/1/4 1143/1/4
f 1143/11/4 1126/11/4 1144/11/4
f 1139/1/4 1140/1/4 1145/1/4
f 1145/1/4 1140/1/4 1146/1/4
f 1143/11/4 1144/11/4 1150/11/4
f 1144/11/4 1145/11/4 1150/11/4
f 1146/8/4 1147/8/4 1151/8/4
f 1150/11/4 1145/11/4 1154/11/4
f 1145/1/4 1146/1/4 1155/1/4
f 1154/11/4 1145/11/4 1155/11/4
f 1151/8/4 1152/8/4 1156/8/4
f 1155/1/4 1146/1/4 1156/1/4
f 1146/8/4 1151/8/4 1156/8/4
f 1152/3/4 1153/3/4 1157/3/4
f 1157/3/4 1153/3/4 1158/3/4
f 1156/8/4 1152/8/4 1159/8/4
f 1159/8/4 1152/8/4 1160/8/4
f 1152/3/4 1157/3/4 1161/3/4
f 1161/3/4 1157/3/4 1162/3/4
f 1150/11/4 1154/11/4 1163/11/4
f 1160/8/4 1152/8/4 1165/8/4
f 1152/3/4 1161/3/4 1166/3/4
f 1165/8/4 1152/8/4 1166/8/4
f 1166/3/4 1161/3/4 1167/3/4
f 1148/14/4 1149/14/4 1168/14/4
f 1149/1/4 1150/1/4 1169/1/4
f 1168/14/4 1149/14/4 1169/14/4
f 1163/11/4 1164/11/4 1170/11/4
f 1169/1/4 1150/1/4 1170/1/4
f 1150/11/4 1163/11/4 1170/11/4
f 1170/11/4 1164/11/4 1171/11/4
f 1171/11/4 1164/11/4 1172/11/4
f 1170/11/4 1171/11/4 1173/11/4
f 1173/11/4 1171/11/4 1174/11/4
f 1130/3/4 1131/3/4 1177/3/4
f 1177/3/4 1131/3/4 1178/3/4
f 1170/11/4 1173/11/4 1179/11/4
f 1179/11/4 1173/11/4 1180/11/4
f 1175/5/4 1176/5/4 1183/5/4
f 1183/5/4 1176/5/4 1184/5/4
f 1181/8/4 1182/8/4 1190/8/4
f 1182/5/4 1183/5/4 1191/5/4
f 1190/8/4 1182/8/4 1191/8/4
f 1183/4/4 1184/4/4 1192/4/4
f 1191/5/4 1183/5/4 1192/5/4
f 1184/8/4 1185/8/4 1193/8/4
f 1192/4/4 1184/4/4 1193/4/4
f 1185/3/4 1186/3/4 1194/3/4
f 1193/8/4 1185/8/4 1194/8/4
f 1194/3/4 1186/3/4 1195/3/4
f 1195/3/4 1186/3/4 1196/3/4
f 1187/3/4 1188/3/4 1198/3/4
f 1198/3/4 1188/3/4 1199/3/4
f 1192/4/4 1193/4/4 1200/4/4
f 1190/8/4 1191/8/4 1200/8/4
f 1191/4/4 1192/4/4 1200/4/4
f 1193/4/4 1194/4/4 1200/4/4
f 1200/4/4 1194/4/4 1201/4/4
f 1201/4/4 1194/4/4 1202/4/4
f 1194/3/4 1195/3/4 1203/3/4
f 1202/4/4 1194/4/4 1203/4/4
f 1203/3/4 1195/3/4 1204/3/4
f 1197/3/4 1198/3/4 1206/3/4
f 1206/3/4 1198/3/4 1207/3/4
f 1189/1/4 1190/1/4 1208/1/4
f 1190/8/4 1200/8/4 1208/8/4
f 1200/8/4 1201/8/4 1208/8/4
f 1208/8/4 1201/8/4 1209/8/4
f 1201/4/4 1202/4/4 1210/4/4
f 1209/8/4 1201/8/4 1210/8/4
f 1210/4/4 1202/4/4 1211/4/4
f 1205/3/4 1206/3/4 1214/3/4
f 1214/3/4 1206/3/4 1215/3/4
f 1208/1/4 1209/1/4 1216/1/4
f 1189/1/4 1208/1/4 1216/1/4
f 1209/8/4 1210/8/4 1217/8/4
f 1216/1/4 1209/1/4 1217/1/4
f 1210/8/4 1211/8/4 1217/8/4
f 1217/8/4 1211/8/4 1218/8/4
f 1212/3/4 1213/3/4 1223/3/4
f 1223/3/4 1213/3/4 1224/3/4
f 1219/2/4 1220/2/4 1225/2/4
f 1225/2/4 1220/2/4 1226/2/4
f 1221/3/4 1222/3/4 1227/3/4
f 1227/3/4 1222/3/4 1228/3/4
f 1229/3/4 1230/3/4 1231/3/4
f 1231/3/4 1232/3/4 1233/3/4
f 1233/3/4 1232/3/4 1234/3/4
f 1229/3/4 1231/3/4 1237/3/4
f 1231/3/4 1233/3/4 1237/3/4
f 1237/3/4 1233/3/4 1238/3/4
f 1238/3/4 1233/3/4 1239/3/4
f 1235/3/4 1236/3/4 1241/3/4
f 1241/3/4 1236/3/4 1242/3/4
f 1242/3/4 1236/3/4 1243/3/4
f 1239/3/4 1240/3/4 1245/3/4
f 1238/3/4 1239/3/4 1245/3/4
f 1243/3/4 1244/3/4 1246/3/4
f 1242/3/4 1243/3/4 1246/3/4
f 1246/3/4 1244/3/4 1247/3/4
f 1238/3/4 1245/3/4 1249/3/4
f 1247/3/4 1248/3/4 1249/3/4
f 1246/3/4 1247/3/4 1249/3/4
f 1245/3/4 1246/3/4 1249/3/4
f 1249/3/4 1248/3/4 1250/3/4
f 1250/3/4 1248/3/4 1251/3/4
f 1251/3/4 1252/3/4 1254/3/4
f 1250/3/4 1251/3/4 1254/3/4
f 1254/3/4 1252/3/4 1255/3/4
f 1253/3/4 1254/3/4 1258/3/4
f 1255/3/4 1256/3/4 1258/3/4
f 1254/3/4 1255/3/4 1258/3/4
f 1258/3/4 1256/3/4 1259/3/4
f 1259/3/4 1256/3/4 1260/3/4
f 1257/3/4 1258/3/4 1261/3/4
f 1258/3/4 1259/3/4 1261/3/4
f 1260/3/4 1256/3/4 1264/3/4
f 1261/3/4 1262/3/4 1265/3/4
f 1263/3/4 1264/3/4 1266/3/4
f 1261/3/4 1265/3/4 1267/3/4
f 1265/3/4 1266/3/4 1267/3/4
f 1257/3/4 1261/3/4 1267/3/4
f 1267/3/4 1266/3/4 1268/3/4
f 1257/3/4 1267/3/4 1269/3/4
f 1269/3/4 1267/3/4 1270/3/4
f 1268/3/4 1266/3/4 1271/3/4
f 1271/3/4 1266/3/4 1272/3/4
f 1272/3/4 1266/3/4 1273/3/4
f 1266/3/4 1264/3/4 1274/3/4
f 1273/3/4 1266/3/4 1274/3/4
f 1264/3/4 1256/3/4 1274/3/4
f 1274/3/4 1256/3/4 1278/3/4
f 1275/3/4 1276/3/4 1279/3/4
f 1277/3/4 1278/3/4 1282/3/4
f 1279/3/4 1280/3/4 1283/3/4
f 1275/3/4 1279/3/4 1283/3/4
f 1283/3/4 1280/3/4 1284/3/4
f 1284/3/4 1280/3/4 1285/3/4
f 1281/3/4 1282/3/4 1286/3/4
f 1284/3/4 1285/3/4 1287/3/4
f 1285/3/4 1286/3/4 1287/3/4
f 1287/3/4 1286/3/4 1288/3/4
f 1288/3/4 1286/3/4 1289/3/4
f 1289/3/4 1286/3/4 1290/3/4
f 1290/3/4 1286/3/4 1291/3/4
f 1286/3/4 1282/3/4 1292/3/4
f 1291/3/4 1286/3/4 1292/3/4
f 1282/3/4 1278/3/4 1292/3/4
f 1278/3/4 1256/3/4 1293/3/4
f 1292/3/4 1278/3/4 1293/3/4
f 1293/3/4 1256/3/4 1294/3/4
f 1292/3/4 1293/3/4 1296/3/4
f 1296/3/4 1293/3/4 1297/3/4
f 1297/3/4 1293/3/4 1298/3/4
f 1295/3/4 1296/3/4 1300/3/4
f 1296/3/4 1297/3/4 1300/3/4
f 1300/3/4 1297/3/4 1301/3/4
f 1301/3/4 1297/3/4 1302/3/4
f 1302/3/4 1297/3/4 1303/3/4
f 1303/3/4 1297/3/4 1304/3/4
f 1299/3/4 1300/3/4 1305/3/4
f 1300/3/4 1301/3/4 1305/3/4
f 1305/3/4 1301/3/4 1306/3/4
f 1302/3/4 1303/3/4 1308/3/4
f 1308/3/4 1303/3/4 1309/3/4
f 1309/3/4 1303/3/4 1310/3/4
f 1299/3/4 1305/3/4 1312/3/4
f 1312/3/4 1305/3/4 1313/3/4
f 1313/3/4 1305/3/4 1314/3/4
f 1308/3/4 1309/3/4 1316/3/4
f 1307/3/4 1308/3/4 1316/3/4
f 1316/3/4 1309/3/4 1317/3/4
f 1317/3/4 1309/3/4 1318/3/4
f 1312/3/4 1313/3/4 1319/3/4
f 1311/3/4 1312/3/4 1319/3/4
f 1319/3/4 1313/3/4 1320/3/4
f 1320/3/4 1313/3/4 1321/3/4
f 1316/3/4 1317/3/4 1322/3/4
f 1315/3/4 1316/3/4 1322/3/4
f 1322/3/4 1317/3/4 1323/3/4
f 1323/3/4 1317/3/4 1324/3/4
f 1320/3/4 1321/3/4 1325/3/4
f 1322/3/4 1323/3/4 1325/3/4
f 1321/3/4 1322/3/4 1325/3/4
f 1325/3/4 1323/3/4 1326/3/4
f 1331/14/5 1328/14/5 1327/14/5
f 1332/14/5 1328/14/5 1331/14/5
f 1333/14/5 1330/14/5 1329/14/5
f 1334/14/5 1330/14/5 1333/14/5
f 1341/11/5 1338/11/5 1337/11/5
f 1342/11/5 1338/11/5 1341/11/5
f 1343/10/5 1342/10/5 1341/10/5
f 1344/10/5 1342/10/5 1343/10/5
f 1345/11/5 1336/11/5 1335/11/5
f 1346/11/5 1336/11/5 1345/11/5
f 1347/11/5 1344/11/5 1343/11/5
f 1348/11/5 1344/11/5 1347/11/5
f 1349/11/5 1340/11/5 1339/11/5
f 1350/11/5 1340/11/5 1349/11/5
f 1355/1/5 1352/1/5 1351/1/5
f 1356/1/5 1352/1/5 1355/1/5
f 1357/1/5 1354/1/5 1353/1/5
f 1358/1/5 1354/1/5 1357/1/5
f 1365/3/5 1364/3/5 1363/3/5
f 1367/8/5 1360/8/5 1359/8/5
f 1368/8/5 1360/8/5 1367/8/5
f 1373/8/5 1362/8/5 1361/8/5
f 1374/8/5 1362/8/5 1373/8/5
f 1375/3/5 1366/3/5 1365/3/5
f 1375/3/5 1365/3/5 1363/3/5
f 1376/3/5 1366/3/5 1375/3/5
f 1377/3/5 1370/3/5 1369/3/5
f 1378/3/5 1370/3/5 1377/3/5
f 1379/3/5 1372/3/5 1371/3/5
f 1380/3/5 1372/3/5 1379/3/5
f 1385/3/5 1382/3/5 1381/3/5
f 1386/3/5 1384/3/5 1383/3/5
f 1387/3/5 1384/3/5 1386/3/5
f 1388/3/5 1382/3/5 1385/3/5
f 1389/3/5 1382/3/5 1388/3/5
f 1397/8/5 1391/8/5 1390/8/5
f 1398/8/5 1391/8/5 1397/8/5
f 1401/5/5 1393/5/5 1392/5/5
f 1402/5/5 1393/5/5 1401/5/5
f 1403/3/5 1397/3/5 1396/3/5
f 1404/3/5 1397/3/5 1403/3/5
f 1405/3/5 1399/3/5 1398/3/5
f 1406/3/5 1399/3/5 1405/3/5
f 1407/3/5 1401/3/5 1400/3/5
f 1408/3/5 1401/3/5 1407/3/5
f 1409/3/5 1395/3/5 1394/3/5
f 1410/3/5 1395/3/5 1409/3/5
f 1415/8/5 1412/8/5 1411/8/5
f 1416/8/5 1412/8/5 1415/8/5
f 1419/8/5 1414/8/5 1413/8/5
f 1420/8/5 1414/8/5 1419/8/5
f 1425/3/5 1418/3/5 1417/3/5
f 1426/3/5 1418/3/5 1425/3/5
f 1427/3/5 1421/3/5 1420/3/5
f 1428/3/5 1421/3/5 1427/3/5
f 1429/3/5 1424/3/5 1423/3/5
f 1429/3/5 1423/3/5 1422/3/5
f 1430/3/5 1424/3/5 1429/3/5
f 1435/3/5 1432/3/5 1431/3/5
f 1436/3/5 1432/3/5 1435/3/5
f 1437/3/5 1434/3/5 1433/3/5
f 1438/3/5 1434/3/5 1437/3/5
f 1441/3/5 1440/3/5 1439/3/5
f 1442/3/5 1440/3/5 1441/3/5
f 1445/3/5 1444/3/5 1443/3/5
f 1446/3/5 1444/3/5 1445/3/5
f 1451/3/5 1448/3/5 1447/3/5
f 1452/3/5 1448/3/5 1451/3/5
f 1453/3/5 1450/3/5 1449/3/5
f 1454/3/5 1450/3/5 1453/3/5
f 1459/3/5 1456/3/5 1455/3/5
f 1460/3/5 1456/3/5 1459/3/5
f 1461/3/5 1458/3/5 1457/3/5
f 1462/3/5 1458/3/5 1461/3/5
f 1465/3/5 1464/3/5 1463/3/5
f 1466/3/5 1464/3/5 1465/3/5
f 1469/2/5 1466/2/5 1465/2/5
f 1470/2/5 1466/2/5 1469/2/5
f 1471/3/5 1468/3/5 1467/3/5
f 1472/3/5 1470/3/5 1469/3/5
f 1473/3/5 1470/3/5 1472/3/5
f 1474/3/5 1470/3/5 1473/3/5
f 1475/3/5 1471/3/5 1467/3/5
f 1476/3/5 1471/3/5 1475/3/5
f 1479/3/5 1478/3/5 1477/3/5
f 1480/3/5 1478/3/5 1479/3/5
f 1481/3/5 1478/3/5 1480/3/5
f 1484/3/5 1483/3/5 1482/3/5
f 1485/3/5 1483/3/5 1484/3/5
f 1494/3/5 1487/3/5 1486/3/5
f 1495/3/5 1487/3/5 1494/3/5
f 1496/3/5 1487/3/5 1495/3/5
f 1497/3/5 1489/3/5 1488/3/5
f 1498/3/5 1489/3/5 1497/3/5
f 1501/3/5 1493/3/5 1492/3/5
f 1502/3/5 1493/3/5 1501/3/5
f 1503/2/5 1502/2/5 1501/2/5
f 1504/2/5 1502/2/5 1503/2/5
f 1505/3/5 1491/3/5 1490/3/5
f 1506/3/5 1491/3/5 1505/3/5
f 1509/3/5 1504/3/5 1503/3/5
f 1510/3/5 1504/3/5 1509/3/5
f 1511/3/5 1508/3/5 1507/3/5
f 1512/3/5 1508/3/5 1511/3/5
f 1513/3/5 1500/3/5 1499/3/5
f 1514/3/5 1500/3/5 1513/3/5
f 1517/3/5 1516/3/5 1515/3/5
f 1518/3/5 1516/3/5 1517/3/5
f 1523/3/5 1520/3/5 1519/3/5
f 1524/3/5 1520/3/5 1523/3/5
f 1525/3/5 1522/3/5 1521/3/5
f 1526/3/5 1525/3/5 1521/3/5
f 1527/3/5 1526/3/5 1521/3/5
f 1530/3/5 1529/3/5 1528/3/5
f 1531/3/5 1529/3/5 1530/3/5
f 1532/3/5 1527/3/5 1521/3/5
f 1533/3/5 1527/3/5 1532/3/5
f 1538/3/5 1535/3/5 1534/3/5
f 1539/3/5 1535/3/5 1538/3/5
f 1540/3/5 1537/3/5 1536/3/5
f 1541/3/5 1537/3/5 1540/3/5
f 1548/3/5 1543/3/5 1542/3/5
f 1549/3/5 1543/3/5 1548/3/5
f 1550/3/5 1545/3/5 1544/3/5
f 1551/3/5 1545/3/5 1550/3/5
f 1552/3/5 1547/3/5 1546/3/5
f 1553/3/5 1547/3/5 1552/3/5
f 1562/3/5 1555/3/5 1554/3/5
f 1563/3/5 1555/3/5 1562/3/5
f 1564/3/5 1557/3/5 1556/3/5
f 1565/3/5 1557/3/5 1564/3/5
f 1566/3/5 1559/3/5 1558/3/5
f 1567/3/5 1559/3/5 1566/3/5
f 1568/3/5 1561/3/5 1560/3/5
f 1569/3/5 1561/3/5 1568/3/5
f 1574/3/5 1571/3/5 1570/3/5
f 1575/3/5 1571/3/5 1574/3/5
f 1576/3/5 1573/3/5 1572/3/5
f 1577/3/5 1573/3/5 1576/3/5
f 1578/14/6 1579/14/6 1582/14/6
f 1582/14/6 1579/14/6 1583/14/6
f 1580/14/6 1581/14/6 1584/14/6
f 1584/14/6 1581/14/6 1585/14/6
f 1586/11/6 1587/11/6 1590/11/6
f 1590/11/6 1587/11/6 1591/11/6
f 1588/11/6 1589/11/6 1592/11/6
f 1592/11/6 1589/11/6 1593/11/6
f 1594/11/6 1595/11/6 1598/11/6
f 1598/11/6 1595/11/6 1599/11/6
f 1596/11/6 1597/11/6 1600/11/6
f 1600/11/6 1597/11/6 1601/11/6
f 1602/11/6 1603/11/6 1606/11/6
f 1606/11/6 1603/11/6 1607/11/6
f 1604/11/6 1605/11/6 1610/11/6
f 1610/11/6 1605/11/6 1611/11/6
f 1608/3/6 1609/3/6 1612/3/6
f 1612/3/6 1609/3/6 1613/3/6
f 1614/8/6 1615/8/6 1616/8/6
f 1616/8/6 1615/8/6 1617/8/6
f 1618/3/6 1619/3/6 1620/3/6
f 1620/3/6 1619/3/6 1621/3/6
f 1622/8/6 1623/8/6 1624/8/6
f 1624/8/6 1623/8/6 1625/8/6
f 1626/3/6 1627/3/6 1632/3/6
f 1632/3/6 1627/3/6 1633/3/6
f 1628/3/6 1629/3/6 1634/3/6
f 1634/3/6 1629/3/6 1635/3/6
f 1630/3/6 1631/3/6 1636/3/6
f 1636/3/6 1631/3/6 1637/3/6
f 1640/3/6 1641/3/6 1642/3/6
f 1642/3/6 1641/3/6 1643/3/6
f 1638/2/6 1639/2/6 1646/2/6
f 1646/2/6 1639/2/6 1647/2/6
f 1644/3/6 1645/3/6 1648/3/6
f 1648/3/6 1645/3/6 1649/3/6
f 1650/3/6 1651/3/6 1652/3/6
f 1652/3/6 1651/3/6 1653/3/6
f 1654/3/6 1655/3/6 1656/3/6
f 1656/3/6 1655/3/6 1657/3/6
f 1658/8/6 1659/8/6 1662/8/6
f 1662/8/6 1659/8/6 1663/8/6
f 1660/8/6 1661/8/6 1664/8/6
f 1664/8/6 1661/8/6 1665/8/6
f 1666/8/6 1667/8/6 1671/8/6
f 1671/8/6 1667/8/6 1672/8/6
f 1668/8/6 1669/8/6 1673/8/6
f 1673/8/6 1669/8/6 1674/8/6
f 1670/3/6 1671/3/6 1677/3/6
f 1677/3/6 1671/3/6 1678/3/6
f 1675/3/6 1676/3/6 1679/3/6
f 1679/3/6 1676/3/6 1680/3/6
f 1681/3/6 1682/3/6 1687/3/6
f 1687/3/6 1682/3/6 1688/3/6
f 1689/3/6 1690/3/6 1691/3/6
f 1691/3/6 1690/3/6 1692/3/6
f 1683/3/6 1684/3/6 1693/3/6
f 1693/3/6 1684/3/6 1694/3/6
f 1685/3/6 1686/3/6 1695/3/6
f 1695/3/6 1686/3/6 1696/3/6
f 1697/3/6 1698/3/6 1699/3/6
f 1699/3/6 1698/3/6 1700/3/6
f 1701/3/6 1702/3/6 1703/3/6
f 1703/3/6 1702/3/6 1704/3/6
f 1705/3/6 1706/3/6 1707/3/6
f 1707/3/6 1706/3/6 1708/3/6
f 1709/3/6 1710/3/6 1713/3/6
f 1713/3/6 1710/3/6 1714/3/6
f 1711/3/6 1712/3/6 1715/3/6
f 1715/3/6 1712/3/6 1716/3/6
f 1717/3/6 1718/3/6 1719/3/6
f 1719/3/6 1718/3/6 1720/3/6
f 1721/3/6 1722/3/6 1725/3/6
f 1725/3/6 1722/3/6 1726/3/6
f 1723/3/6 1724/3/6 1727/3/6
f 1727/3/6 1724/3/6 1728/3/6
f 1729/3/6 1730/3/6 1731/3/6
f 1731/3/6 1730/3/6 1732/3/6
f 1733/3/6 1734/3/6 1737/3/6
f 1737/3/6 1734/3/6 1738/3/6
f 1735/3/6 1736/3/6 1739/3/6
f 1739/3/6 1736/3/6 1740/3/6
f 1741/3/6 1742/3/6 1745/3/6
f 1745/3/6 1742/3/6 1746/3/6
f 1743/3/6 1744/3/6 1747/3/6
f 1747/3/6 1744/3/6 1748/3/6
f 1749/3/6 1750/3/6 1751/3/6
f 1751/3/6 1750/3/6 1752/3/6
f 1753/3/6 1754/3/6 1755/3/6
f 1755/3/6 1754/3/6 1756/3/6
f 1757/3/6 1758/3/6 1761/3/6
f 1761/3/6 1758/3/6 1762/3/6
f 1759/3/6 1760/3/6 1763/3/6
f 1763/3/6 1760/3/6 1764/3/6
f 1765/3/6 1766/3/6 1769/3/6
f 1769/3/6 1766/3/6 1770/3/6
f 1767/3/6 1768/3/6 1771/3/6
f 1771/3/6 1768/3/6 1772/3/6
f 1773/3/6 1774/3/6 1777/3/6
f 1777/3/6 1774/3/6 1778/3/6
f 1775/3/6 1776/3/6 1779/3/6
f 1779/3/6 1776/3/6 1780/3/6
f 1781/3/6 1782/3/6 1785/3/6
f 1785/3/6 1782/3/6 1786/3/6
f 1783/3/6 1784/3/6 1787/3/6
f 1787/3/6 1784/3/6 1788/3/6
f 1789/3/6 1790/3/6 1794/3/6
f 1794/3/6 1790/3/6 1795/3/6
f 1791/3/6 1792/3/6 1796/3/6
f 1796/3/6 1792/3/6 1797/3/6
f 1793/3/6 1794/3/6 1799/3/6
f 1799/3/6 1794/3/6 1800/3/6
f 1797/3/6 1798/3/6 1803/3/6
f 1803/3/6 1798/3/6 1804/3/6
f 1800/3/6 1801/3/6 1805/3/6
f 1805/3/6 1801/3/6 1806/3/6
f 1802/3/6 1803/3/6 1807/3/6
f 1807/3/6 1803/3/6 1808/3/6
f 1809/3/6 1810/3/6 1814/3/6
f 1814/3/6 1810/3/6 1815/3/6
f 1811/3/6 1812/3/6 1816/3/6
f 1816/3/6 1812/3/6 1817/3/6
f 1813/3/6 1814/3/6 1819/3/6
f 1819/3/6 1814/3/6 1820/3/6
f 1817/3/6 1818/3/6 1823/3/6
f 1823/3/6 1818/3/6 1824/3/6
f 1820/3/6 1821/3/6 1825/3/6
f 1825/3/6 1821/3/6 1826/3/6
f 1822/3/6 1823/3/6 1827/3/6
f 1827/3/6 1823/3/6 1828/3/6
f 1829/3/6 1830/3/6 1832/3/6
f 1832/3/6 1830/3/6 1833/3/6
f 1833/3/6 1830/3/6 1834/3/6
f 1834/3/6 1830/3/6 1835/3/6
f 1831/3/6 1832/3/6 1837/3/6
f 1832/3/6 1833/3/6 1837/3/6
f 1837/3/6 1833/3/6 1838/3/6
f 1835/3/6 1836/3/6 1839/3/6
f 1834/3/6 1835/3/6 1839/3/6
f 1839/3/6 1836/3/6 1840/3/6
f 1831/3/6 1837/3/6 1841/3/6
f 1840/3/6 1836/3/6 1844/3/6
f 1841/3/6 1842/3/6 1845/3/6
f 1831/3/6 1841/3/6 1845/3/6
f 1845/3/6 1842/3/6 1846/3/6
f 1846/3/6 1842/3/6 1847/3/6
f 1843/3/6 1844/3/6 1848/3/6
f 1844/3/6 1836/3/6 1849/3/6
f 1848/3/6 1844/3/6 1849/3/6
f 1849/3/6 1836/3/6 1850/3/6
f 1846/3/6 1847/3/6 1851/3/6
f 1847/3/6 1848/3/6 1851/3/6
f 1848/3/6 1849/3/6 1851/3/6
f 1851/3/6 1849/3/6 1852/3/6
f 1853/3/6 1854/3/6 1856/3/6
f 1856/3/6 1854/3/6 1857/3/6
f 1855/3/6 1856/3/6 1859/3/6
f 1857/3/6 1858/3/6 1859/3/6
f 1856/3/6 1857/3/6 1859/3/6
f 1859/3/6 1858/3/6 1860/3/6
f 1860/3/6 1858/3/6 1861/3/6
f 1861/3/6 1858/3/6 1862/3/6
f 1860/3/6 1861/3/6 1863/3/6
f 1863/3/6 1861/3/6 1864/3/6
